<?xml version="1.0" encoding="utf-8"?>
<!-- Generator: Adobe Illustrator 24.1.2, SVG Export Plug-In . SVG Version: 6.00 Build 0)  -->
<svg version="1.1" id="Слой_1" xmlns="http://www.w3.org/2000/svg" xmlns:xlink="http://www.w3.org/1999/xlink" x="0px" y="0px"
	 viewBox="0 0 1318.11 1669.61" style="enable-background:new 0 0 1318.11 1669.61;" xml:space="preserve">
<style type="text/css">
	.st0{fill:#683D3A;}
	.st1{fill:none;stroke:#FCCE9E;stroke-miterlimit:10;stroke-dasharray:12;}
	.st2{fill:#39535B;}
	.st3{fill:#FCCE9E;}
</style>
<g>
	<g>
		<path class="st0" d="M1289.76,1669.61H28.35c-15.66,0-28.35-12.69-28.35-28.35V28.35C0,12.69,12.69,0,28.35,0h1261.42
			c15.66,0,28.35,12.69,28.35,28.35v1612.91C1318.11,1656.92,1305.42,1669.61,1289.76,1669.61z"/>
		<path class="st1" d="M1276.14,1655.43H41.97c-15.35,0-27.8-12.45-27.8-27.8V41.97c0-15.35,12.45-27.8,27.8-27.8h1234.16
			c15.35,0,27.8,12.45,27.8,27.8v1585.66C1303.94,1642.99,1291.49,1655.43,1276.14,1655.43z"/>
	</g>
	<rect x="70.87" y="70.87" class="st2" width="1176.38" height="1527.87"/>
	<g>
		<g>
			<rect x="87.87" y="1493.86" class="st0" width="87.87" height="87.87"/>
			<rect x="175.75" y="1493.86" class="st3" width="87.87" height="87.87"/>
			<rect x="263.62" y="1493.86" class="st0" width="87.87" height="87.87"/>
			<rect x="351.5" y="1493.86" class="st3" width="87.87" height="87.87"/>
			<rect x="439.37" y="1493.86" class="st0" width="87.87" height="87.87"/>
			<rect x="790.87" y="1493.86" class="st0" width="87.87" height="87.87"/>
			<rect x="878.74" y="1493.86" class="st3" width="87.87" height="87.87"/>
			<rect x="966.61" y="1493.86" class="st0" width="87.87" height="87.87"/>
			<rect x="1054.49" y="1493.86" class="st3" width="87.87" height="87.87"/>
			<rect x="1142.36" y="1493.86" class="st0" width="87.87" height="87.87"/>
			<rect x="527.24" y="1493.86" class="st3" width="87.87" height="87.87"/>
			<rect x="615.12" y="1493.86" class="st0" width="87.87" height="87.87"/>
			<rect x="702.99" y="1493.86" class="st3" width="87.87" height="87.87"/>
		</g>
		<g>
			<rect x="1142.36" y="1405.98" class="st3" width="87.87" height="87.87"/>
			<rect x="87.87" y="1405.98" class="st3" width="87.87" height="87.87"/>
			<rect x="175.75" y="1405.98" class="st0" width="87.87" height="87.87"/>
			<rect x="263.62" y="1405.98" class="st3" width="87.87" height="87.87"/>
			<rect x="351.5" y="1405.98" class="st0" width="87.87" height="87.87"/>
			<rect x="702.99" y="1405.98" class="st0" width="87.87" height="87.87"/>
			<rect x="790.87" y="1405.98" class="st3" width="87.87" height="87.87"/>
			<rect x="878.74" y="1405.98" class="st0" width="87.87" height="87.87"/>
			<rect x="966.61" y="1405.98" class="st3" width="87.87" height="87.87"/>
			<rect x="1054.49" y="1405.98" class="st0" width="87.87" height="87.87"/>
			<rect x="439.37" y="1405.98" class="st3" width="87.87" height="87.87"/>
			<rect x="527.24" y="1405.98" class="st0" width="87.87" height="87.87"/>
			<rect x="615.12" y="1405.98" class="st3" width="87.87" height="87.87"/>
		</g>
		<g>
			<rect x="87.87" y="1318.11" class="st0" width="87.87" height="87.87"/>
			<rect x="175.75" y="1318.11" class="st3" width="87.87" height="87.87"/>
			<rect x="263.62" y="1318.11" class="st0" width="87.87" height="87.87"/>
			<rect x="351.5" y="1318.11" class="st3" width="87.87" height="87.87"/>
			<rect x="439.37" y="1318.11" class="st0" width="87.87" height="87.87"/>
			<rect x="790.87" y="1318.11" class="st0" width="87.87" height="87.87"/>
			<rect x="878.74" y="1318.11" class="st3" width="87.87" height="87.87"/>
			<rect x="966.61" y="1318.11" class="st0" width="87.87" height="87.87"/>
			<rect x="1054.49" y="1318.11" class="st3" width="87.87" height="87.87"/>
			<rect x="1142.36" y="1318.11" class="st0" width="87.87" height="87.87"/>
			<rect x="527.24" y="1318.11" class="st3" width="87.87" height="87.87"/>
			<rect x="615.12" y="1318.11" class="st0" width="87.87" height="87.87"/>
			<rect x="702.99" y="1318.11" class="st3" width="87.87" height="87.87"/>
		</g>
		<g>
			<rect x="1142.36" y="1230.24" class="st3" width="87.87" height="87.87"/>
			<rect x="87.87" y="1230.24" class="st3" width="87.87" height="87.87"/>
			<rect x="175.75" y="1230.24" class="st0" width="87.87" height="87.87"/>
			<rect x="263.62" y="1230.24" class="st3" width="87.87" height="87.87"/>
			<rect x="351.5" y="1230.24" class="st0" width="87.87" height="87.87"/>
			<rect x="702.99" y="1230.24" class="st0" width="87.87" height="87.87"/>
			<rect x="790.87" y="1230.24" class="st3" width="87.87" height="87.87"/>
			<rect x="878.74" y="1230.24" class="st0" width="87.87" height="87.87"/>
			<rect x="966.61" y="1230.24" class="st3" width="87.87" height="87.87"/>
			<rect x="1054.49" y="1230.24" class="st0" width="87.87" height="87.87"/>
			<rect x="439.37" y="1230.24" class="st3" width="87.87" height="87.87"/>
			<rect x="527.24" y="1230.24" class="st0" width="87.87" height="87.87"/>
			<rect x="615.12" y="1230.24" class="st3" width="87.87" height="87.87"/>
		</g>
		<g>
			<rect x="87.87" y="1142.36" class="st0" width="87.87" height="87.87"/>
			<rect x="175.75" y="1142.36" class="st3" width="87.87" height="87.87"/>
			<rect x="263.62" y="1142.36" class="st0" width="87.87" height="87.87"/>
			<rect x="351.5" y="1142.36" class="st3" width="87.87" height="87.87"/>
			<rect x="439.37" y="1142.36" class="st0" width="87.87" height="87.87"/>
			<rect x="790.87" y="1142.36" class="st0" width="87.87" height="87.87"/>
			<rect x="878.74" y="1142.36" class="st3" width="87.87" height="87.87"/>
			<rect x="966.61" y="1142.36" class="st0" width="87.87" height="87.87"/>
			<rect x="1054.49" y="1142.36" class="st3" width="87.87" height="87.87"/>
			<rect x="1142.36" y="1142.36" class="st0" width="87.87" height="87.87"/>
			<rect x="527.24" y="1142.36" class="st3" width="87.87" height="87.87"/>
			<rect x="615.12" y="1142.36" class="st0" width="87.87" height="87.87"/>
			<rect x="702.99" y="1142.36" class="st3" width="87.87" height="87.87"/>
		</g>
		<g>
			<rect x="1142.36" y="1054.49" class="st3" width="87.87" height="87.87"/>
			<rect x="87.87" y="1054.49" class="st3" width="87.87" height="87.87"/>
			<rect x="175.75" y="1054.49" class="st0" width="87.87" height="87.87"/>
			<rect x="263.62" y="1054.49" class="st3" width="87.87" height="87.87"/>
			<rect x="351.5" y="1054.49" class="st0" width="87.87" height="87.87"/>
			<rect x="702.99" y="1054.49" class="st0" width="87.87" height="87.87"/>
			<rect x="790.87" y="1054.49" class="st3" width="87.87" height="87.87"/>
			<rect x="878.74" y="1054.49" class="st0" width="87.87" height="87.87"/>
			<rect x="966.61" y="1054.49" class="st3" width="87.87" height="87.87"/>
			<rect x="1054.49" y="1054.49" class="st0" width="87.87" height="87.87"/>
			<rect x="439.37" y="1054.49" class="st3" width="87.87" height="87.87"/>
			<rect x="527.24" y="1054.49" class="st0" width="87.87" height="87.87"/>
			<rect x="615.12" y="1054.49" class="st3" width="87.87" height="87.87"/>
		</g>
		<g>
			<rect x="87.87" y="966.61" class="st0" width="87.87" height="87.87"/>
			<rect x="175.75" y="966.61" class="st3" width="87.87" height="87.87"/>
			<rect x="263.62" y="966.61" class="st0" width="87.87" height="87.87"/>
			<rect x="351.5" y="966.61" class="st3" width="87.87" height="87.87"/>
			<rect x="439.37" y="966.61" class="st0" width="87.87" height="87.87"/>
			<rect x="790.87" y="966.61" class="st0" width="87.87" height="87.87"/>
			<rect x="878.74" y="966.61" class="st3" width="87.87" height="87.87"/>
			<rect x="966.61" y="966.61" class="st0" width="87.87" height="87.87"/>
			<rect x="1054.49" y="966.61" class="st3" width="87.87" height="87.87"/>
			<rect x="1142.36" y="966.61" class="st0" width="87.87" height="87.87"/>
			<rect x="527.24" y="966.61" class="st3" width="87.87" height="87.87"/>
			<rect x="615.12" y="966.61" class="st0" width="87.87" height="87.87"/>
			<rect x="702.99" y="966.61" class="st3" width="87.87" height="87.87"/>
		</g>
		<g>
			<rect x="87.87" y="790.87" class="st0" width="87.87" height="87.87"/>
			<rect x="175.75" y="790.87" class="st3" width="87.87" height="87.87"/>
			<rect x="263.62" y="790.87" class="st0" width="87.87" height="87.87"/>
			<rect x="351.5" y="790.87" class="st3" width="87.87" height="87.87"/>
			<rect x="439.37" y="790.87" class="st0" width="87.87" height="87.87"/>
			<rect x="790.87" y="790.87" class="st0" width="87.87" height="87.87"/>
			<rect x="878.74" y="790.87" class="st3" width="87.87" height="87.87"/>
			<rect x="966.61" y="790.87" class="st0" width="87.87" height="87.87"/>
			<rect x="1054.49" y="790.87" class="st3" width="87.87" height="87.87"/>
			<rect x="1142.36" y="790.87" class="st0" width="87.87" height="87.87"/>
			<rect x="527.24" y="790.87" class="st3" width="87.87" height="87.87"/>
			<rect x="615.12" y="790.87" class="st0" width="87.87" height="87.87"/>
			<rect x="702.99" y="790.87" class="st3" width="87.87" height="87.87"/>
		</g>
		<g>
			<rect x="1142.36" y="878.74" class="st3" width="87.87" height="87.87"/>
			<rect x="87.87" y="878.74" class="st3" width="87.87" height="87.87"/>
			<rect x="175.75" y="878.74" class="st0" width="87.87" height="87.87"/>
			<rect x="263.62" y="878.74" class="st3" width="87.87" height="87.87"/>
			<rect x="351.5" y="878.74" class="st0" width="87.87" height="87.87"/>
			<rect x="702.99" y="878.74" class="st0" width="87.87" height="87.87"/>
			<rect x="790.87" y="878.74" class="st3" width="87.87" height="87.87"/>
			<rect x="878.74" y="878.74" class="st0" width="87.87" height="87.87"/>
			<rect x="966.61" y="878.74" class="st3" width="87.87" height="87.87"/>
			<rect x="1054.49" y="878.74" class="st0" width="87.87" height="87.87"/>
			<rect x="439.37" y="878.74" class="st3" width="87.87" height="87.87"/>
			<rect x="527.24" y="878.74" class="st0" width="87.87" height="87.87"/>
			<rect x="615.12" y="878.74" class="st3" width="87.87" height="87.87"/>
		</g>
		<g>
			<rect x="1142.36" y="702.99" class="st3" width="87.87" height="87.87"/>
			<rect x="87.87" y="702.99" class="st3" width="87.87" height="87.87"/>
			<rect x="175.75" y="702.99" class="st0" width="87.87" height="87.87"/>
			<rect x="263.62" y="702.99" class="st3" width="87.87" height="87.87"/>
			<rect x="351.5" y="702.99" class="st0" width="87.87" height="87.87"/>
			<rect x="702.99" y="702.99" class="st0" width="87.87" height="87.87"/>
			<rect x="790.87" y="702.99" class="st3" width="87.87" height="87.87"/>
			<rect x="878.74" y="702.99" class="st0" width="87.87" height="87.87"/>
			<rect x="966.61" y="702.99" class="st3" width="87.87" height="87.87"/>
			<rect x="1054.49" y="702.99" class="st0" width="87.87" height="87.87"/>
			<rect x="439.37" y="702.99" class="st3" width="87.87" height="87.87"/>
			<rect x="527.24" y="702.99" class="st0" width="87.87" height="87.87"/>
			<rect x="615.12" y="702.99" class="st3" width="87.87" height="87.87"/>
		</g>
		<g>
			<rect x="87.87" y="615.12" class="st0" width="87.87" height="87.87"/>
			<rect x="175.75" y="615.12" class="st3" width="87.87" height="87.87"/>
			<rect x="263.62" y="615.12" class="st0" width="87.87" height="87.87"/>
			<rect x="351.5" y="615.12" class="st3" width="87.87" height="87.87"/>
			<rect x="439.37" y="615.12" class="st0" width="87.87" height="87.87"/>
			<rect x="790.87" y="615.12" class="st0" width="87.87" height="87.87"/>
			<rect x="878.74" y="615.12" class="st3" width="87.87" height="87.87"/>
			<rect x="966.61" y="615.12" class="st0" width="87.87" height="87.87"/>
			<rect x="1054.49" y="615.12" class="st3" width="87.87" height="87.87"/>
			<rect x="1142.36" y="615.12" class="st0" width="87.87" height="87.87"/>
			<rect x="527.24" y="615.12" class="st3" width="87.87" height="87.87"/>
			<rect x="615.12" y="615.12" class="st0" width="87.87" height="87.87"/>
			<rect x="702.99" y="615.12" class="st3" width="87.87" height="87.87"/>
		</g>
		<g>
			<rect x="1142.36" y="527.24" class="st3" width="87.87" height="87.87"/>
			<rect x="87.87" y="527.24" class="st3" width="87.87" height="87.87"/>
			<rect x="175.75" y="527.24" class="st0" width="87.87" height="87.87"/>
			<rect x="263.62" y="527.24" class="st3" width="87.87" height="87.87"/>
			<rect x="351.5" y="527.24" class="st0" width="87.87" height="87.87"/>
			<rect x="702.99" y="527.24" class="st0" width="87.87" height="87.87"/>
			<rect x="790.87" y="527.24" class="st3" width="87.87" height="87.87"/>
			<rect x="878.74" y="527.24" class="st0" width="87.87" height="87.87"/>
			<rect x="966.61" y="527.24" class="st3" width="87.87" height="87.87"/>
			<rect x="1054.49" y="527.24" class="st0" width="87.87" height="87.87"/>
			<rect x="439.37" y="527.24" class="st3" width="87.87" height="87.87"/>
			<rect x="527.24" y="527.24" class="st0" width="87.87" height="87.87"/>
			<rect x="615.12" y="527.24" class="st3" width="87.87" height="87.87"/>
		</g>
		<g>
			<rect x="87.87" y="439.37" class="st0" width="87.87" height="87.87"/>
			<rect x="175.75" y="439.37" class="st3" width="87.87" height="87.87"/>
			<rect x="263.62" y="439.37" class="st0" width="87.87" height="87.87"/>
			<rect x="351.5" y="439.37" class="st3" width="87.87" height="87.87"/>
			<rect x="439.37" y="439.37" class="st0" width="87.87" height="87.87"/>
			<rect x="790.87" y="439.37" class="st0" width="87.87" height="87.87"/>
			<rect x="878.74" y="439.37" class="st3" width="87.87" height="87.87"/>
			<rect x="966.61" y="439.37" class="st0" width="87.87" height="87.87"/>
			<rect x="1054.49" y="439.37" class="st3" width="87.87" height="87.87"/>
			<rect x="1142.36" y="439.37" class="st0" width="87.87" height="87.87"/>
			<rect x="527.24" y="439.37" class="st3" width="87.87" height="87.87"/>
			<rect x="615.12" y="439.37" class="st0" width="87.87" height="87.87"/>
			<rect x="702.99" y="439.37" class="st3" width="87.87" height="87.87"/>
		</g>
		<g>
			<rect x="1142.36" y="351.5" class="st3" width="87.87" height="87.87"/>
			<rect x="87.87" y="351.5" class="st3" width="87.87" height="87.87"/>
			<rect x="175.75" y="351.5" class="st0" width="87.87" height="87.87"/>
			<rect x="263.62" y="351.5" class="st3" width="87.87" height="87.87"/>
			<rect x="351.5" y="351.5" class="st0" width="87.87" height="87.87"/>
			<rect x="702.99" y="351.5" class="st0" width="87.87" height="87.87"/>
			<rect x="790.87" y="351.5" class="st3" width="87.87" height="87.87"/>
			<rect x="878.74" y="351.5" class="st0" width="87.87" height="87.87"/>
			<rect x="966.61" y="351.5" class="st3" width="87.87" height="87.87"/>
			<rect x="1054.49" y="351.5" class="st0" width="87.87" height="87.87"/>
			<rect x="439.37" y="351.5" class="st3" width="87.87" height="87.87"/>
			<rect x="527.24" y="351.5" class="st0" width="87.87" height="87.87"/>
			<rect x="615.12" y="351.5" class="st3" width="87.87" height="87.87"/>
		</g>
		<g>
			<rect x="87.87" y="263.62" class="st0" width="87.87" height="87.87"/>
			<rect x="175.75" y="263.62" class="st3" width="87.87" height="87.87"/>
			<rect x="263.62" y="263.62" class="st0" width="87.87" height="87.87"/>
			<rect x="351.5" y="263.62" class="st3" width="87.87" height="87.87"/>
			<rect x="439.37" y="263.62" class="st0" width="87.87" height="87.87"/>
			<rect x="790.87" y="263.62" class="st0" width="87.87" height="87.87"/>
			<rect x="878.74" y="263.62" class="st3" width="87.87" height="87.87"/>
			<rect x="966.61" y="263.62" class="st0" width="87.87" height="87.87"/>
			<rect x="1054.49" y="263.62" class="st3" width="87.87" height="87.87"/>
			<rect x="1142.36" y="263.62" class="st0" width="87.87" height="87.87"/>
			<rect x="527.24" y="263.62" class="st3" width="87.87" height="87.87"/>
			<rect x="615.12" y="263.62" class="st0" width="87.87" height="87.87"/>
			<rect x="702.99" y="263.62" class="st3" width="87.87" height="87.87"/>
		</g>
		<g>
			<rect x="87.87" y="87.87" class="st0" width="87.87" height="87.87"/>
			<rect x="175.75" y="87.87" class="st3" width="87.87" height="87.87"/>
			<rect x="263.62" y="87.87" class="st0" width="87.87" height="87.87"/>
			<rect x="351.5" y="87.87" class="st3" width="87.87" height="87.87"/>
			<rect x="439.37" y="87.87" class="st0" width="87.87" height="87.87"/>
			<rect x="790.87" y="87.87" class="st0" width="87.87" height="87.87"/>
			<rect x="878.74" y="87.87" class="st3" width="87.87" height="87.87"/>
			<rect x="966.61" y="87.87" class="st0" width="87.87" height="87.87"/>
			<rect x="1054.49" y="87.87" class="st3" width="87.87" height="87.87"/>
			<rect x="1142.36" y="87.87" class="st0" width="87.87" height="87.87"/>
			<rect x="527.24" y="87.87" class="st3" width="87.87" height="87.87"/>
			<rect x="615.12" y="87.87" class="st0" width="87.87" height="87.87"/>
			<rect x="702.99" y="87.87" class="st3" width="87.87" height="87.87"/>
		</g>
		<g>
			<rect x="1142.36" y="175.75" class="st3" width="87.87" height="87.87"/>
			<rect x="87.87" y="175.75" class="st3" width="87.87" height="87.87"/>
			<rect x="175.75" y="175.75" class="st0" width="87.87" height="87.87"/>
			<rect x="263.62" y="175.75" class="st3" width="87.87" height="87.87"/>
			<rect x="351.5" y="175.75" class="st0" width="87.87" height="87.87"/>
			<rect x="702.99" y="175.75" class="st0" width="87.87" height="87.87"/>
			<rect x="790.87" y="175.75" class="st3" width="87.87" height="87.87"/>
			<rect x="878.74" y="175.75" class="st0" width="87.87" height="87.87"/>
			<rect x="966.61" y="175.75" class="st3" width="87.87" height="87.87"/>
			<rect x="1054.49" y="175.75" class="st0" width="87.87" height="87.87"/>
			<rect x="439.37" y="175.75" class="st3" width="87.87" height="87.87"/>
			<rect x="527.24" y="175.75" class="st0" width="87.87" height="87.87"/>
			<rect x="615.12" y="175.75" class="st3" width="87.87" height="87.87"/>
		</g>
	</g>
	<g>
		<path class="st3" d="M137.57,53.82l-7.03,3.43h-0.7V32.88c0-1.62-0.07-2.63-0.2-3.02c-0.13-0.4-0.42-0.7-0.84-0.92
			c-0.43-0.21-1.29-0.33-2.6-0.36v-0.79h10.86v0.79c-1.36,0.03-2.24,0.15-2.64,0.35c-0.4,0.21-0.67,0.48-0.83,0.83
			c-0.16,0.35-0.23,1.39-0.23,3.12v15.58c0,2.1,0.07,3.45,0.21,4.04c0.1,0.45,0.28,0.79,0.54,1c0.26,0.21,0.58,0.32,0.95,0.32
			c0.53,0,1.26-0.22,2.19-0.66L137.57,53.82z"/>
	</g>
	<g>
		<path class="st3" d="M210.12,33.34l2.02-5.56h17.03v0.79c-5.01,4.57-8.54,8.3-10.58,11.2c-2.04,2.9-3.07,5.54-3.07,7.94
			c0,1.83,0.56,3.34,1.68,4.51s2.46,1.77,4.02,1.77c1.42,0,2.69-0.42,3.82-1.25c1.13-0.83,1.96-2.05,2.5-3.65h0.79
			c-0.35,2.63-1.27,4.64-2.74,6.05c-1.47,1.41-3.3,2.11-5.5,2.11c-2.34,0-4.3-0.75-5.87-2.26c-1.57-1.5-2.35-3.28-2.35-5.32
			c0-1.46,0.34-2.92,1.02-4.39c1.05-2.3,2.75-4.73,5.11-7.3c3.53-3.86,5.74-6.19,6.62-6.98h-7.54c-1.53,0-2.61,0.06-3.23,0.17
			c-0.62,0.11-1.17,0.34-1.67,0.69s-0.93,0.84-1.3,1.48H210.12z"/>
	</g>
	<g>
		<path class="st3" d="M315.31,51.42c-0.82,1.94-1.86,3.45-3.12,4.5c-1.26,1.06-2.82,1.59-4.69,1.59c-2.31,0-4.09-0.75-5.32-2.26
			c-0.94-1.12-1.41-2.32-1.41-3.6c0-2.1,1.32-4.27,3.96-6.51c-1.77-0.7-3.12-1.69-4.02-2.98c-0.91-1.29-1.36-2.81-1.36-4.56
			c0-2.5,0.79-4.66,2.38-6.49c2.07-2.38,5.07-3.58,9.01-3.58c1.94,0,3.27,0.24,3.97,0.72c0.7,0.48,1.05,1,1.05,1.55
			c0,0.41-0.17,0.77-0.5,1.09s-0.73,0.47-1.2,0.47c-0.35,0-0.72-0.06-1.09-0.17c-0.24-0.07-0.79-0.33-1.64-0.78
			c-0.85-0.45-1.44-0.71-1.77-0.8c-0.53-0.16-1.09-0.23-1.68-0.23c-1.45,0-2.71,0.56-3.78,1.68c-1.07,1.12-1.61,2.45-1.61,3.98
			c0,1.12,0.25,2.21,0.75,3.28c0.37,0.79,0.77,1.4,1.21,1.81c0.61,0.57,1.45,1.08,2.51,1.54c1.06,0.46,2.15,0.69,3.26,0.69h0.68
			v0.64c-1.12,0.14-2.25,0.55-3.37,1.21s-1.95,1.47-2.46,2.41c-0.51,0.94-0.77,1.97-0.77,3.09c0,1.46,0.46,2.64,1.37,3.54
			c0.92,0.9,2.05,1.35,3.42,1.35c2.2,0,4.04-1.18,5.51-3.53L315.31,51.42z"/>
	</g>
	<g>
		<path class="st3" d="M385.63,38.43v-3.02h3.87v-7.62h3.51v7.62h12.22v2.72l-13.39,19.12h-2.34V38.43H385.63z M393.01,38.43v14.33
			l10.13-14.33H393.01z"/>
	</g>
	<g>
		<path class="st3" d="M474.89,57.21l1.66-3.62h8.69l1.89-3.87c-3.76-0.55-6.74-1.95-8.94-4.19c-1.89-1.93-2.83-4.2-2.83-6.81
			c0-1.52,0.31-2.92,0.93-4.22c0.62-1.29,1.39-2.39,2.33-3.3c0.94-0.91,1.98-1.64,3.13-2.19c1.63-0.78,3.31-1.17,5.02-1.17
			c1.73,0,2.99,0.29,3.78,0.88c0.79,0.59,1.18,1.24,1.18,1.95c0,0.4-0.16,0.75-0.49,1.05c-0.33,0.31-0.74,0.46-1.23,0.46
			c-0.37,0-0.69-0.06-0.97-0.17s-0.75-0.4-1.42-0.87c-1.06-0.74-2.14-1.11-3.24-1.11c-1.66,0-3.12,0.63-4.37,1.88
			c-1.26,1.26-1.88,2.79-1.88,4.59c0,1.75,0.56,3.37,1.68,4.89c1.12,1.51,2.67,2.68,4.64,3.5c1.55,0.64,3.65,1.01,6.32,1.11
			l-5.54,11.22H474.89z"/>
	</g>
	<g>
		<path class="st3" d="M562.65,57.51v-0.79c1.87-0.18,3.4-0.56,4.59-1.12s2.36-1.42,3.51-2.57s2.11-2.43,2.87-3.84
			c0.76-1.41,1.39-3.09,1.91-5.03c-2.04,1.41-4.09,2.11-6.15,2.11c-1.97,0-3.68-0.79-5.13-2.38c-1.45-1.59-2.17-3.63-2.17-6.13
			c0-2.41,0.73-4.61,2.19-6.6c1.76-2.41,4.09-3.62,6.98-3.62c1.97,0,3.65,0.65,5.02,1.96c2.7,2.54,4.04,5.83,4.04,9.88
			c0,2.58-0.52,5.04-1.55,7.37c-1.04,2.33-2.52,4.39-4.44,6.2c-1.92,1.8-3.76,3.02-5.52,3.64c-1.76,0.62-3.4,0.94-4.92,0.94H562.65z
			 M575.89,42.6c0.26-1.92,0.38-3.46,0.38-4.64c0-1.36-0.25-2.84-0.76-4.44c-0.5-1.6-1.25-2.86-2.25-3.8c-0.72-0.67-1.6-1-2.64-1
			c-1.23,0-2.34,0.58-3.31,1.75s-1.46,2.82-1.46,4.98c0,2.43,0.48,4.53,1.45,6.3s2.33,2.66,4.11,2.66c0.54,0,1.12-0.11,1.74-0.34
			C573.78,43.85,574.69,43.36,575.89,42.6z"/>
	</g>
	<g>
		<path class="st3" d="M665.4,57.27h-15.48v-0.81l9.62-28.65h2.38l-8.62,25.99h7.94c1.6,0,2.75-0.19,3.43-0.57
			c1.19-0.65,2.15-1.66,2.87-3.02l0.62,0.23L665.4,57.27z"/>
	</g>
	<g>
		<path class="st3" d="M749.52,42.58c2.28,1.87,3.76,3.38,4.42,4.51c0.66,1.14,0.99,2.31,0.99,3.53c0,1.87-0.72,3.49-2.17,4.84
			c-1.45,1.36-3.37,2.03-5.77,2.03c-2.33,0-4.2-0.63-5.62-1.89c-1.42-1.26-2.13-2.7-2.13-4.32c0-1.08,0.38-2.18,1.15-3.3
			c0.77-1.12,2.36-2.44,4.79-3.96c-2.5-1.93-4.15-3.45-4.96-4.56c-1.08-1.45-1.62-2.97-1.62-4.58c0-2.03,0.77-3.76,2.32-5.21
			c1.55-1.44,3.58-2.16,6.09-2.16c2.74,0,4.88,0.86,6.41,2.58c1.22,1.38,1.83,2.88,1.83,4.51c0,1.28-0.43,2.54-1.29,3.8
			C753.1,39.68,751.62,41.06,749.52,42.58z M748.52,41.77c1.18-0.99,2.05-2.08,2.62-3.25c0.57-1.17,0.85-2.44,0.85-3.8
			c0-1.83-0.5-3.3-1.5-4.4c-1-1.1-2.27-1.65-3.82-1.65c-1.53,0-2.76,0.43-3.68,1.3c-0.92,0.87-1.38,1.92-1.38,3.15
			c0,1.02,0.27,1.94,0.81,2.75C743.42,37.38,745.46,39.35,748.52,41.77z M746.18,44.86c-1.7,1.53-2.78,2.74-3.24,3.63
			c-0.45,0.89-0.68,1.89-0.68,3.01c0,1.49,0.42,2.66,1.26,3.5c0.84,0.84,1.98,1.27,3.43,1.27s2.63-0.42,3.53-1.26
			c0.91-0.84,1.36-1.82,1.36-2.94c0-0.74-0.19-1.48-0.56-2.21c-0.38-0.74-0.91-1.44-1.61-2.11L746.18,44.86z"/>
	</g>
	<g>
		<path class="st3" d="M843.33,27.49v0.79c-1.85,0.03-3.56,0.46-5.15,1.29c-1.59,0.83-3.13,2.28-4.61,4.35s-2.52,4.35-3.1,6.83
			c2.23-1.43,4.24-2.15,6.05-2.15c2.03,0,3.77,0.78,5.22,2.35c1.45,1.57,2.17,3.65,2.17,6.25c0,2.53-0.72,4.78-2.17,6.75
			c-1.75,2.4-4.02,3.6-6.83,3.6c-2.37,0-4.4-0.98-6.09-2.94c-2.07-2.43-3.11-5.42-3.11-8.98c0-3.21,0.79-6.2,2.36-8.97
			c1.58-2.77,3.77-5.08,6.58-6.91c2.28-1.5,4.78-2.26,7.47-2.26H843.33z M830.13,42.33c-0.26,1.85-0.38,3.32-0.38,4.43
			c0,1.38,0.23,2.86,0.7,4.46c0.47,1.6,1.13,2.82,1.99,3.67s1.83,1.28,2.93,1.28c1.26,0,2.37-0.57,3.32-1.7
			c0.95-1.14,1.43-2.82,1.43-5.07c0-2.99-0.63-5.34-1.89-7.03c-0.92-1.22-2.06-1.83-3.41-1.83c-0.65,0-1.43,0.16-2.32,0.47
			C831.6,41.32,830.81,41.76,830.13,42.33z"/>
	</g>
	<g>
		<path class="st3" d="M941.2,54.11l-7.05,3.44h-0.7V33.1c0-1.62-0.07-2.63-0.2-3.03c-0.14-0.4-0.42-0.7-0.84-0.92
			s-1.3-0.33-2.6-0.36V28h10.89v0.79c-1.37,0.03-2.25,0.15-2.65,0.35s-0.68,0.48-0.83,0.83c-0.16,0.35-0.23,1.39-0.23,3.13v15.63
			c0,2.11,0.07,3.46,0.21,4.06c0.1,0.46,0.28,0.79,0.54,1c0.26,0.21,0.58,0.32,0.95,0.32c0.53,0,1.26-0.22,2.2-0.66L941.2,54.11z"/>
		<path class="st3" d="M922.88,42.31c0,3.3-0.5,6.14-1.49,8.53c-1,2.38-2.32,4.16-3.97,5.33c-1.28,0.93-2.6,1.39-3.97,1.39
			c-2.22,0-4.21-1.13-5.98-3.39c-2.21-2.8-3.31-6.6-3.31-11.4c0-3.36,0.48-6.21,1.45-8.56s2.2-4.05,3.7-5.11
			c1.5-1.06,2.95-1.59,4.34-1.59c2.76,0,5.06,1.63,6.9,4.89C922.11,35.13,922.88,38.43,922.88,42.31z M918.7,41.77
			c0-3.99-0.49-7.24-1.47-9.76c-0.81-2.12-2.02-3.18-3.63-3.18c-0.77,0-1.57,0.35-2.39,1.04c-0.83,0.69-1.45,1.85-1.88,3.47
			c-0.65,2.45-0.98,5.9-0.98,10.35c0,3.3,0.34,6.06,1.02,8.26c0.51,1.64,1.17,2.8,1.99,3.48c0.58,0.47,1.29,0.7,2.11,0.7
			c0.97,0,1.83-0.43,2.58-1.3c1.02-1.18,1.72-3.04,2.09-5.57C918.51,46.73,918.7,44.23,918.7,41.77z"/>
	</g>
	<g>
		<path class="st3" d="M1026.65,54.05l-7.17,3.5h-0.72V32.68c0-1.65-0.07-2.68-0.21-3.08c-0.14-0.41-0.42-0.72-0.86-0.93
			s-1.32-0.34-2.65-0.37v-0.8h11.08v0.8c-1.39,0.03-2.29,0.15-2.69,0.36c-0.41,0.21-0.69,0.49-0.85,0.85
			c-0.16,0.35-0.24,1.42-0.24,3.18v15.9c0,2.14,0.07,3.52,0.22,4.13c0.1,0.46,0.29,0.8,0.55,1.02s0.59,0.33,0.97,0.33
			c0.54,0,1.28-0.22,2.24-0.67L1026.65,54.05z"/>
		<path class="st3" d="M1006.06,54.05l-7.17,3.5h-0.72V32.68c0-1.65-0.07-2.68-0.21-3.08c-0.14-0.41-0.42-0.72-0.86-0.93
			s-1.32-0.34-2.65-0.37v-0.8h11.08v0.8c-1.39,0.03-2.29,0.15-2.69,0.36c-0.41,0.21-0.69,0.49-0.85,0.85
			c-0.16,0.35-0.24,1.42-0.24,3.18v15.9c0,2.14,0.07,3.52,0.22,4.13c0.1,0.46,0.29,0.8,0.55,1.02s0.59,0.33,0.97,0.33
			c0.54,0,1.28-0.22,2.24-0.67L1006.06,54.05z"/>
	</g>
	<g>
		<path class="st3" d="M1117.13,54.05l-7.17,3.5h-0.72V32.68c0-1.65-0.07-2.68-0.21-3.08c-0.14-0.41-0.42-0.72-0.86-0.93
			c-0.43-0.22-1.32-0.34-2.65-0.37v-0.8h11.08v0.8c-1.39,0.03-2.29,0.15-2.69,0.36c-0.41,0.21-0.69,0.49-0.85,0.85
			c-0.16,0.35-0.24,1.42-0.24,3.18v15.9c0,2.14,0.07,3.52,0.22,4.13c0.1,0.46,0.29,0.8,0.55,1.02c0.27,0.22,0.59,0.33,0.97,0.33
			c0.54,0,1.28-0.22,2.24-0.67L1117.13,54.05z"/>
		<path class="st3" d="M1079.71,33.16l2.06-5.67h17.38v0.8c-5.11,4.66-8.71,8.47-10.79,11.42c-2.09,2.95-3.13,5.65-3.13,8.1
			c0,1.87,0.57,3.4,1.72,4.6c1.14,1.2,2.51,1.8,4.1,1.8c1.45,0,2.75-0.42,3.9-1.27c1.15-0.85,2-2.09,2.55-3.72h0.8
			c-0.36,2.68-1.29,4.73-2.79,6.17s-3.37,2.15-5.61,2.15c-2.39,0-4.38-0.77-5.98-2.3s-2.4-3.34-2.4-5.43c0-1.49,0.35-2.98,1.04-4.47
			c1.07-2.35,2.81-4.83,5.21-7.45c3.61-3.94,5.86-6.31,6.75-7.12h-7.69c-1.56,0-2.66,0.06-3.29,0.17s-1.2,0.35-1.7,0.71
			s-0.95,0.86-1.32,1.51H1079.71z"/>
	</g>
	<g>
		<path class="st3" d="M1203.78,54.11l-7.05,3.44h-0.7V33.1c0-1.62-0.07-2.63-0.2-3.03c-0.14-0.4-0.42-0.7-0.84-0.92
			c-0.43-0.21-1.3-0.33-2.6-0.36V28h10.89v0.79c-1.37,0.03-2.25,0.15-2.65,0.35s-0.68,0.48-0.83,0.83
			c-0.16,0.35-0.23,1.39-0.23,3.13v15.63c0,2.11,0.07,3.46,0.21,4.06c0.1,0.46,0.28,0.79,0.54,1c0.26,0.21,0.58,0.32,0.95,0.32
			c0.53,0,1.26-0.22,2.2-0.66L1203.78,54.11z"/>
		<path class="st3" d="M1184.82,51.44c-0.83,1.95-1.87,3.46-3.13,4.52s-2.83,1.59-4.71,1.59c-2.32,0-4.1-0.75-5.34-2.26
			c-0.94-1.12-1.41-2.33-1.41-3.61c0-2.11,1.32-4.28,3.97-6.53c-1.78-0.7-3.12-1.69-4.03-2.99c-0.91-1.3-1.37-2.82-1.37-4.57
			c0-2.5,0.8-4.68,2.39-6.51c2.08-2.39,5.09-3.59,9.03-3.59c1.95,0,3.28,0.24,3.98,0.73c0.7,0.48,1.06,1,1.06,1.56
			c0,0.41-0.17,0.78-0.5,1.09c-0.33,0.31-0.74,0.47-1.21,0.47c-0.36,0-0.72-0.06-1.09-0.17c-0.24-0.07-0.79-0.33-1.64-0.78
			s-1.44-0.72-1.77-0.8c-0.53-0.16-1.09-0.23-1.69-0.23c-1.45,0-2.71,0.56-3.79,1.69c-1.07,1.12-1.61,2.46-1.61,3.99
			c0,1.12,0.25,2.22,0.75,3.29c0.37,0.8,0.78,1.4,1.22,1.81c0.61,0.57,1.45,1.09,2.52,1.55c1.07,0.46,2.16,0.69,3.27,0.69h0.68v0.64
			c-1.12,0.14-2.25,0.55-3.38,1.22c-1.13,0.67-1.95,1.47-2.47,2.41c-0.51,0.94-0.77,1.97-0.77,3.1c0,1.47,0.46,2.65,1.38,3.55
			c0.92,0.9,2.06,1.36,3.43,1.36c2.21,0,4.05-1.18,5.53-3.54L1184.82,51.44z"/>
	</g>
	<g>
		<g>
			<path class="st3" d="M126.16,1615.78l7.03-3.43h0.7v24.38c0,1.62,0.07,2.63,0.2,3.02c0.13,0.4,0.42,0.7,0.84,0.92
				c0.43,0.21,1.29,0.33,2.6,0.36v0.79h-10.86v-0.79c1.36-0.03,2.24-0.15,2.64-0.35s0.67-0.48,0.83-0.83
				c0.16-0.35,0.23-1.39,0.23-3.12v-15.58c0-2.1-0.07-3.45-0.21-4.04c-0.1-0.45-0.28-0.79-0.54-1s-0.58-0.32-0.95-0.32
				c-0.53,0-1.26,0.22-2.19,0.66L126.16,1615.78z"/>
		</g>
		<g>
			<path class="st3" d="M229.21,1636.26l-2.02,5.56h-17.03v-0.79c5.01-4.57,8.54-8.3,10.58-11.2s3.07-5.54,3.07-7.94
				c0-1.83-0.56-3.34-1.68-4.51s-2.46-1.77-4.02-1.77c-1.42,0-2.69,0.42-3.82,1.25c-1.13,0.83-1.96,2.05-2.5,3.65h-0.79
				c0.35-2.63,1.27-4.64,2.74-6.05s3.3-2.11,5.5-2.11c2.34,0,4.3,0.75,5.87,2.26s2.35,3.28,2.35,5.32c0,1.46-0.34,2.92-1.02,4.39
				c-1.05,2.3-2.75,4.73-5.11,7.3c-3.53,3.86-5.74,6.19-6.62,6.98h7.54c1.53,0,2.61-0.06,3.23-0.17s1.17-0.34,1.67-0.69
				c0.5-0.35,0.93-0.84,1.3-1.48H229.21z"/>
		</g>
		<g>
			<path class="st3" d="M299.83,1618.19c0.82-1.94,1.86-3.45,3.12-4.5c1.26-1.06,2.82-1.59,4.69-1.59c2.31,0,4.09,0.75,5.32,2.26
				c0.94,1.12,1.41,2.32,1.41,3.6c0,2.1-1.32,4.27-3.96,6.51c1.77,0.7,3.12,1.69,4.02,2.98c0.91,1.29,1.36,2.81,1.36,4.56
				c0,2.5-0.79,4.66-2.38,6.49c-2.07,2.38-5.07,3.58-9.01,3.58c-1.94,0-3.27-0.24-3.97-0.72s-1.05-1-1.05-1.55
				c0-0.41,0.17-0.77,0.5-1.09s0.73-0.47,1.2-0.47c0.35,0,0.72,0.06,1.09,0.17c0.24,0.07,0.79,0.33,1.64,0.78
				c0.85,0.45,1.44,0.71,1.77,0.8c0.53,0.16,1.09,0.23,1.68,0.23c1.45,0,2.71-0.56,3.78-1.68c1.07-1.12,1.61-2.45,1.61-3.98
				c0-1.12-0.25-2.21-0.75-3.28c-0.37-0.79-0.77-1.4-1.21-1.81c-0.61-0.57-1.45-1.08-2.51-1.54c-1.06-0.46-2.15-0.69-3.26-0.69
				h-0.68v-0.64c1.12-0.14,2.25-0.55,3.37-1.21c1.13-0.67,1.95-1.47,2.46-2.41c0.51-0.94,0.77-1.97,0.77-3.09
				c0-1.46-0.46-2.64-1.37-3.54c-0.92-0.9-2.05-1.35-3.42-1.35c-2.2,0-4.04,1.18-5.51,3.53L299.83,1618.19z"/>
		</g>
		<g>
			<path class="st3" d="M405.29,1631.17v3.02h-3.87v7.62h-3.51v-7.62h-12.22v-2.72l13.39-19.12h2.34v18.82H405.29z M397.9,1631.17
				v-14.33l-10.13,14.33H397.9z"/>
		</g>
		<g>
			<path class="st3" d="M491.77,1612.4l-1.66,3.62h-8.69l-1.89,3.87c3.76,0.55,6.74,1.95,8.94,4.19c1.89,1.93,2.83,4.2,2.83,6.81
				c0,1.52-0.31,2.92-0.93,4.22s-1.39,2.39-2.33,3.3c-0.94,0.91-1.98,1.64-3.13,2.19c-1.63,0.78-3.31,1.17-5.02,1.17
				c-1.73,0-2.99-0.29-3.78-0.88c-0.79-0.59-1.18-1.24-1.18-1.95c0-0.4,0.16-0.75,0.49-1.05s0.74-0.46,1.23-0.46
				c0.37,0,0.69,0.06,0.97,0.17c0.28,0.11,0.75,0.4,1.42,0.87c1.06,0.74,2.14,1.11,3.24,1.11c1.66,0,3.12-0.63,4.37-1.88
				c1.26-1.26,1.88-2.79,1.88-4.59c0-1.75-0.56-3.37-1.68-4.89c-1.12-1.51-2.67-2.68-4.64-3.5c-1.55-0.64-3.65-1.01-6.32-1.11
				l5.54-11.22H491.77z"/>
		</g>
		<g>
			<path class="st3" d="M579.75,1612.1v0.79c-1.87,0.18-3.4,0.56-4.59,1.12c-1.19,0.56-2.36,1.42-3.51,2.57
				c-1.16,1.15-2.11,2.43-2.87,3.84s-1.39,3.09-1.91,5.03c2.04-1.41,4.09-2.11,6.15-2.11c1.97,0,3.68,0.79,5.13,2.38
				c1.45,1.59,2.17,3.63,2.17,6.13c0,2.41-0.73,4.61-2.19,6.6c-1.76,2.41-4.09,3.62-6.98,3.62c-1.97,0-3.65-0.65-5.02-1.96
				c-2.7-2.54-4.04-5.83-4.04-9.88c0-2.58,0.52-5.04,1.55-7.37c1.04-2.33,2.52-4.39,4.44-6.2c1.92-1.8,3.76-3.02,5.52-3.64
				c1.76-0.62,3.4-0.94,4.92-0.94H579.75z M566.51,1627c-0.26,1.92-0.38,3.46-0.38,4.64c0,1.36,0.25,2.84,0.76,4.44
				c0.5,1.6,1.25,2.86,2.25,3.8c0.72,0.67,1.6,1,2.64,1c1.23,0,2.34-0.58,3.31-1.75s1.46-2.82,1.46-4.98c0-2.43-0.48-4.53-1.45-6.3
				c-0.97-1.77-2.33-2.66-4.11-2.66c-0.54,0-1.12,0.11-1.73,0.34C568.62,1625.76,567.71,1626.25,566.51,1627z"/>
		</g>
		<g>
			<path class="st3" d="M652.73,1612.35h15.48v0.81l-9.62,28.65h-2.38l8.62-25.99h-7.94c-1.6,0-2.75,0.19-3.43,0.57
				c-1.19,0.65-2.15,1.66-2.87,3.02l-0.62-0.23L652.73,1612.35z"/>
		</g>
		<g>
			<path class="st3" d="M744.34,1627.02c-2.28-1.87-3.76-3.38-4.42-4.51c-0.66-1.14-0.99-2.31-0.99-3.53c0-1.87,0.72-3.49,2.17-4.84
				s3.37-2.03,5.77-2.03c2.33,0,4.2,0.63,5.62,1.89c1.42,1.26,2.13,2.7,2.13,4.32c0,1.08-0.38,2.18-1.15,3.3
				c-0.77,1.12-2.36,2.44-4.79,3.96c2.5,1.93,4.15,3.45,4.96,4.56c1.08,1.45,1.62,2.97,1.62,4.58c0,2.03-0.77,3.76-2.32,5.21
				s-3.58,2.16-6.09,2.16c-2.74,0-4.88-0.86-6.41-2.58c-1.22-1.38-1.83-2.88-1.83-4.51c0-1.28,0.43-2.54,1.29-3.8
				S742.24,1628.54,744.34,1627.02z M745.34,1627.83c-1.18,0.99-2.05,2.08-2.62,3.25s-0.85,2.44-0.85,3.8c0,1.83,0.5,3.3,1.5,4.4
				c1,1.1,2.27,1.65,3.82,1.65c1.53,0,2.76-0.43,3.68-1.3s1.38-1.92,1.38-3.15c0-1.02-0.27-1.94-0.81-2.75
				C750.45,1632.22,748.41,1630.26,745.34,1627.83z M747.69,1624.74c1.7-1.53,2.78-2.74,3.24-3.63c0.45-0.89,0.68-1.89,0.68-3.01
				c0-1.49-0.42-2.66-1.26-3.5s-1.98-1.27-3.43-1.27s-2.63,0.42-3.53,1.26c-0.91,0.84-1.36,1.82-1.36,2.94
				c0,0.74,0.19,1.48,0.56,2.21c0.38,0.74,0.91,1.44,1.61,2.11L747.69,1624.74z"/>
		</g>
		<g>
			<path class="st3" d="M826.28,1642.12v-0.79c1.85-0.03,3.56-0.46,5.15-1.29c1.59-0.83,3.13-2.28,4.61-4.35
				c1.48-2.07,2.52-4.35,3.1-6.83c-2.23,1.43-4.24,2.15-6.05,2.15c-2.03,0-3.77-0.78-5.22-2.35c-1.45-1.57-2.17-3.65-2.17-6.25
				c0-2.53,0.72-4.78,2.17-6.75c1.75-2.4,4.02-3.6,6.83-3.6c2.37,0,4.4,0.98,6.09,2.94c2.07,2.43,3.11,5.42,3.11,8.98
				c0,3.21-0.79,6.2-2.36,8.97c-1.58,2.77-3.77,5.08-6.58,6.91c-2.28,1.5-4.78,2.26-7.47,2.26H826.28z M839.48,1627.28
				c0.26-1.84,0.38-3.32,0.38-4.43c0-1.38-0.23-2.86-0.7-4.46c-0.47-1.6-1.13-2.82-1.99-3.67s-1.83-1.28-2.93-1.28
				c-1.26,0-2.37,0.57-3.32,1.7c-0.95,1.14-1.43,2.82-1.43,5.07c0,2.99,0.63,5.34,1.89,7.03c0.92,1.22,2.06,1.83,3.41,1.83
				c0.65,0,1.43-0.16,2.32-0.47C838.02,1628.29,838.8,1627.85,839.48,1627.28z"/>
		</g>
		<g>
			<path class="st3" d="M904.16,1615.49l7.05-3.44h0.7v24.44c0,1.62,0.07,2.63,0.2,3.03c0.14,0.4,0.42,0.7,0.84,0.92
				s1.3,0.33,2.6,0.36v0.79h-10.89v-0.79c1.37-0.03,2.25-0.15,2.65-0.35c0.4-0.21,0.68-0.48,0.83-0.83
				c0.16-0.35,0.23-1.39,0.23-3.13v-15.63c0-2.11-0.07-3.46-0.21-4.06c-0.1-0.46-0.28-0.79-0.54-1s-0.58-0.32-0.95-0.32
				c-0.53,0-1.26,0.22-2.2,0.66L904.16,1615.49z"/>
			<path class="st3" d="M922.48,1627.3c0-3.3,0.5-6.14,1.49-8.53s2.32-4.16,3.97-5.33c1.28-0.93,2.6-1.39,3.97-1.39
				c2.22,0,4.21,1.13,5.98,3.39c2.21,2.8,3.31,6.6,3.31,11.4c0,3.36-0.48,6.21-1.45,8.56c-0.97,2.35-2.2,4.05-3.7,5.11
				c-1.5,1.06-2.95,1.59-4.34,1.59c-2.76,0-5.06-1.63-6.9-4.89C923.25,1634.48,922.48,1631.17,922.48,1627.3z M926.66,1627.83
				c0,3.99,0.49,7.24,1.47,9.76c0.81,2.12,2.02,3.18,3.63,3.18c0.77,0,1.57-0.35,2.39-1.04s1.45-1.85,1.88-3.47
				c0.65-2.45,0.98-5.9,0.98-10.35c0-3.3-0.34-6.06-1.02-8.26c-0.51-1.64-1.17-2.8-1.99-3.48c-0.58-0.47-1.29-0.7-2.11-0.7
				c-0.97,0-1.83,0.43-2.58,1.3c-1.02,1.18-1.72,3.04-2.09,5.57C926.85,1622.87,926.66,1625.37,926.66,1627.83z"/>
		</g>
		<g>
			<path class="st3" d="M994.46,1615.55l7.17-3.5h0.72v24.87c0,1.65,0.07,2.68,0.21,3.08s0.42,0.72,0.86,0.93s1.32,0.34,2.65,0.37
				v0.8h-11.08v-0.8c1.39-0.03,2.29-0.15,2.69-0.36c0.41-0.21,0.69-0.49,0.85-0.85c0.16-0.35,0.24-1.42,0.24-3.18v-15.9
				c0-2.14-0.07-3.52-0.22-4.13c-0.1-0.46-0.29-0.8-0.55-1.02c-0.27-0.22-0.59-0.33-0.97-0.33c-0.54,0-1.28,0.22-2.24,0.67
				L994.46,1615.55z"/>
			<path class="st3" d="M1015.05,1615.55l7.17-3.5h0.72v24.87c0,1.65,0.07,2.68,0.21,3.08s0.42,0.72,0.86,0.93
				c0.43,0.22,1.32,0.34,2.65,0.37v0.8h-11.08v-0.8c1.39-0.03,2.29-0.15,2.69-0.36c0.41-0.21,0.69-0.49,0.85-0.85
				c0.16-0.35,0.24-1.42,0.24-3.18v-15.9c0-2.14-0.07-3.52-0.22-4.13c-0.1-0.46-0.29-0.8-0.55-1.02c-0.27-0.22-0.59-0.33-0.97-0.33
				c-0.54,0-1.28,0.22-2.24,0.67L1015.05,1615.55z"/>
		</g>
		<g>
			<path class="st3" d="M1079.71,1615.55l7.17-3.5h0.72v24.87c0,1.65,0.07,2.68,0.21,3.08c0.14,0.41,0.42,0.72,0.86,0.93
				c0.43,0.22,1.32,0.34,2.65,0.37v0.8h-11.08v-0.8c1.39-0.03,2.29-0.15,2.69-0.36c0.41-0.21,0.69-0.49,0.85-0.85
				c0.16-0.35,0.24-1.42,0.24-3.18v-15.9c0-2.14-0.07-3.52-0.22-4.13c-0.1-0.46-0.29-0.8-0.55-1.02c-0.27-0.22-0.59-0.33-0.97-0.33
				c-0.54,0-1.28,0.22-2.24,0.67L1079.71,1615.55z"/>
			<path class="st3" d="M1117.13,1636.45l-2.06,5.67h-17.38v-0.8c5.11-4.66,8.71-8.47,10.79-11.42s3.13-5.65,3.13-8.1
				c0-1.87-0.57-3.4-1.72-4.6c-1.14-1.2-2.51-1.8-4.1-1.8c-1.45,0-2.75,0.42-3.9,1.27c-1.15,0.85-2,2.09-2.55,3.72h-0.8
				c0.36-2.68,1.29-4.73,2.79-6.17s3.37-2.15,5.61-2.15c2.39,0,4.38,0.77,5.98,2.3c1.6,1.53,2.4,3.34,2.4,5.43
				c0,1.49-0.35,2.98-1.04,4.47c-1.07,2.35-2.81,4.83-5.21,7.45c-3.61,3.94-5.86,6.31-6.75,7.12h7.69c1.56,0,2.66-0.06,3.29-0.17
				c0.63-0.12,1.2-0.35,1.7-0.71c0.51-0.35,0.95-0.86,1.32-1.51H1117.13z"/>
		</g>
		<g>
			<path class="st3" d="M1168.81,1615.49l7.05-3.44h0.7v24.44c0,1.62,0.07,2.63,0.2,3.03c0.14,0.4,0.42,0.7,0.84,0.92
				s1.3,0.33,2.6,0.36v0.79h-10.89v-0.79c1.37-0.03,2.25-0.15,2.65-0.35c0.4-0.21,0.68-0.48,0.83-0.83
				c0.16-0.35,0.23-1.39,0.23-3.13v-15.63c0-2.11-0.07-3.46-0.21-4.06c-0.1-0.46-0.28-0.79-0.54-1s-0.58-0.32-0.95-0.32
				c-0.53,0-1.26,0.22-2.2,0.66L1168.81,1615.49z"/>
			<path class="st3" d="M1187.77,1618.16c0.83-1.95,1.87-3.46,3.13-4.52c1.26-1.06,2.83-1.59,4.71-1.59c2.32,0,4.1,0.75,5.34,2.26
				c0.94,1.12,1.41,2.33,1.41,3.61c0,2.11-1.32,4.28-3.97,6.53c1.78,0.7,3.12,1.69,4.04,2.99s1.37,2.82,1.37,4.57
				c0,2.5-0.8,4.68-2.39,6.51c-2.08,2.39-5.09,3.59-9.03,3.59c-1.95,0-3.28-0.24-3.98-0.73c-0.7-0.48-1.06-1-1.06-1.56
				c0-0.41,0.17-0.78,0.5-1.09s0.74-0.47,1.21-0.47c0.36,0,0.72,0.06,1.09,0.17c0.24,0.07,0.79,0.33,1.64,0.78
				c0.85,0.45,1.44,0.72,1.77,0.8c0.53,0.16,1.09,0.23,1.69,0.23c1.45,0,2.71-0.56,3.79-1.69c1.07-1.12,1.61-2.46,1.61-3.99
				c0-1.12-0.25-2.22-0.75-3.29c-0.37-0.8-0.78-1.4-1.22-1.81c-0.61-0.57-1.45-1.09-2.52-1.55c-1.07-0.46-2.16-0.69-3.27-0.69h-0.68
				v-0.64c1.12-0.14,2.25-0.55,3.38-1.22s1.95-1.47,2.47-2.41c0.51-0.94,0.77-1.97,0.77-3.1c0-1.47-0.46-2.65-1.38-3.55
				c-0.92-0.9-2.06-1.36-3.43-1.36c-2.21,0-4.05,1.18-5.53,3.54L1187.77,1618.16z"/>
		</g>
	</g>
	<g>
		<path class="st3" d="M1268.9,1450.23c-2.08-0.44-3.64-1.15-4.68-2.13c-1.43-1.36-2.15-3.02-2.15-4.99c0-1.49,0.47-2.92,1.42-4.29
			c0.95-1.37,2.24-2.36,3.89-2.99c1.65-0.63,4.16-0.94,7.55-0.94h14.19v0.82h-1.13c-1.26,0-2.16,0.4-2.7,1.2
			c-0.34,0.52-0.51,1.62-0.51,3.3v19.42c0,1.86,0.21,3.04,0.64,3.52c0.58,0.65,1.43,0.98,2.57,0.98h1.13v0.82h-12.99
			c-2.42,0-4.37-0.18-5.83-0.53c-2.22-0.53-3.91-1.47-5.08-2.83c-1.17-1.35-1.75-2.91-1.75-4.67c0-1.51,0.46-2.86,1.37-4.05
			S1267.11,1450.81,1268.9,1450.23z M1280.51,1451.43c-0.55-0.1-1.17-0.18-1.87-0.23c-0.7-0.05-1.47-0.08-2.32-0.08
			c-2.16,0-3.78,0.23-4.87,0.7c-1.09,0.47-1.92,1.18-2.49,2.14c-0.58,0.96-0.86,2.01-0.86,3.15c0,1.76,0.72,3.26,2.15,4.5
			c1.43,1.24,3.52,1.86,6.27,1.86c1.48,0,2.81-0.16,3.99-0.49V1451.43z M1280.51,1437.07c-1.71-0.4-3.41-0.6-5.08-0.6
			c-2.67,0-4.71,0.6-6.12,1.81c-1.4,1.2-2.11,2.69-2.11,4.47c0,1.17,0.32,2.29,0.95,3.37c0.64,1.08,1.67,1.93,3.1,2.55
			c1.43,0.62,3.21,0.93,5.32,0.93c0.92,0,1.7-0.01,2.35-0.04s1.17-0.08,1.57-0.16V1437.07z"/>
	</g>
	<g>
		<path class="st3" d="M1263.96,1377.08l-0.66-9.77h0.66c0.88,2.93,2.13,5.03,3.75,6.32c1.63,1.29,3.58,1.93,5.85,1.93
			c1.91,0,3.63-0.48,5.17-1.45c1.54-0.97,2.75-2.51,3.64-4.63c0.88-2.12,1.32-4.76,1.32-7.91c0-2.6-0.42-4.85-1.25-6.76
			c-0.83-1.91-2.09-3.37-3.76-4.39c-1.67-1.02-3.59-1.53-5.73-1.53c-1.87,0-3.51,0.4-4.94,1.2s-3,2.38-4.71,4.76l-0.66-0.42
			c1.44-2.56,3.12-4.43,5.05-5.62s4.2-1.78,6.85-1.78c4.76,0,8.45,1.77,11.07,5.3c1.95,2.63,2.93,5.72,2.93,9.28
			c0,2.87-0.64,5.5-1.93,7.91c-1.29,2.4-3.06,4.26-5.31,5.59s-4.72,1.98-7.39,1.98c-2.08,0-4.13-0.51-6.15-1.53
			c-0.59-0.31-1.02-0.47-1.27-0.47c-0.38,0-0.71,0.13-1,0.4c-0.37,0.38-0.63,0.91-0.78,1.59H1263.96z"/>
	</g>
	<g>
		<path class="st3" d="M1290.73,1259.14v0.82h-1.13c-1.27,0-2.17,0.41-2.7,1.22c-0.33,0.49-0.49,1.58-0.49,3.28v19.42
			c0,1.88,0.21,3.05,0.62,3.52c0.58,0.65,1.43,0.98,2.57,0.98h1.13v0.82h-12.24c-4.49,0-7.91-0.51-10.25-1.53
			c-2.34-1.02-4.23-2.72-5.65-5.1c-1.43-2.38-2.14-5.13-2.14-8.25c0-4.18,1.27-7.68,3.81-10.49c2.85-3.13,7.2-4.7,13.03-4.7H1290.73
			z M1282.15,1261.32c-1.88-0.41-3.45-0.62-4.72-0.62c-3.43,0-6.27,1.2-8.53,3.61c-2.26,2.41-3.39,5.68-3.39,9.8
			c0,4.15,1.13,7.43,3.39,9.82c2.26,2.39,5.17,3.59,8.71,3.59c1.33,0,2.84-0.21,4.54-0.64V1261.32z"/>
	</g>
	<g>
		<path class="st3" d="M1278.36,1111.82V1100h-5.48c-1.26,0-2.18,0.28-2.76,0.83s-0.97,1.65-1.16,3.29h-0.82v-10.18h0.82
			c0.01,1.17,0.17,2.02,0.45,2.57c0.29,0.55,0.69,0.96,1.2,1.23c0.51,0.27,1.27,0.41,2.27,0.41h5.48v-9.44
			c0-1.52-0.1-2.53-0.29-3.01c-0.15-0.37-0.46-0.69-0.93-0.95c-0.65-0.35-1.33-0.53-2.04-0.53h-1.09v-0.82h12.9v0.82h-1.06
			c-1.24,0-2.14,0.36-2.7,1.09c-0.35,0.47-0.53,1.61-0.53,3.41v19.42c0,1.52,0.1,2.53,0.29,3.01c0.15,0.37,0.45,0.69,0.91,0.95
			c0.64,0.35,1.32,0.53,2.04,0.53h1.06v0.82h-22.37l-0.29-6.61h0.78c0.38,1.4,0.83,2.43,1.34,3.09c0.51,0.66,1.14,1.13,1.88,1.43
			c0.75,0.3,1.9,0.44,3.47,0.44H1278.36z"/>
	</g>
	<g>
		<path class="st3" d="M1279.87,1199.69v-11.88h-6.61c-1.71,0-2.86,0.26-3.44,0.78c-0.77,0.68-1.2,1.88-1.29,3.59h-0.82v-10.46h0.82
			c0.21,1.46,0.41,2.4,0.62,2.82c0.27,0.52,0.7,0.92,1.31,1.22c0.61,0.3,1.54,0.44,2.79,0.44h6.61v-9.91c0-1.33-0.06-2.14-0.18-2.43
			c-0.12-0.29-0.33-0.52-0.62-0.69c-0.3-0.17-0.86-0.26-1.68-0.26h-5.1c-1.7,0-2.93,0.12-3.7,0.35c-0.77,0.24-1.51,0.7-2.22,1.4
			c-0.92,0.92-1.85,2.3-2.82,4.15h-0.89l2.59-7.54h23.17v0.82h-1.06c-0.71,0-1.38,0.17-2.02,0.51c-0.47,0.24-0.79,0.59-0.96,1.06
			c-0.17,0.47-0.26,1.44-0.26,2.9v19.53c0,1.91,0.19,3.08,0.58,3.52c0.53,0.59,1.42,0.89,2.66,0.89h1.06v0.82h-23.17l-0.33-6.58
			h0.86c0.31,1.58,0.65,2.67,1.03,3.26c0.38,0.59,0.93,1.04,1.67,1.35c0.59,0.22,1.63,0.33,3.13,0.33H1279.87z"/>
	</g>
	<g>
		<path class="st3" d="M1265.08,1025.58l-0.74-9.07h0.74c0.75,2.26,1.72,3.96,2.9,5.11c1.71,1.65,3.91,2.48,6.59,2.48
			c3.66,0,6.44-1.45,8.35-4.35c1.6-2.44,2.4-5.36,2.4-8.73c0-2.74-0.53-5.24-1.59-7.5s-2.45-3.92-4.17-4.97
			c-1.72-1.05-3.48-1.58-5.29-1.58c-1.06,0-2.08,0.13-3.07,0.4c-0.99,0.27-1.94,0.66-2.86,1.19v8.31c0,1.44,0.11,2.38,0.33,2.83
			c0.22,0.45,0.56,0.78,1.02,1.02c0.46,0.23,1.27,0.35,2.43,0.35v0.81h-11.13v-0.81h0.53c1.1,0,1.86-0.37,2.27-1.1
			c0.28-0.52,0.42-1.55,0.42-3.1v-8.8c1.63-0.88,3.23-1.52,4.81-1.93c1.58-0.41,3.34-0.61,5.28-0.61c5.55,0,9.77,1.78,12.66,5.34
			c2.16,2.67,3.24,5.75,3.24,9.24c0,2.53-0.61,4.95-1.82,7.27c-1.44,2.76-3.42,4.88-5.94,6.36c-2.11,1.23-4.59,1.84-7.46,1.84
			c-1.05,0-2-0.08-2.85-0.25c-0.86-0.17-2.07-0.54-3.64-1.12c-0.79-0.3-1.32-0.45-1.59-0.45c-0.27,0-0.5,0.12-0.69,0.37
			s-0.31,0.73-0.35,1.45H1265.08z"/>
	</g>
	<g>
		<path class="st3" d="M1282.57,923.74h-13.97v8.6c0,1.54,0.1,2.55,0.29,3.04c0.15,0.37,0.46,0.69,0.93,0.95
			c0.64,0.35,1.31,0.53,2.02,0.53h1.06v0.82h-12.86v-0.82h1.06c0.71,0,1.38-0.17,2.02-0.51c0.47-0.24,0.79-0.59,0.96-1.08
			c0.17-0.48,0.25-1.46,0.25-2.94v-19.4c0-1.52-0.1-2.53-0.29-3.01c-0.15-0.37-0.45-0.69-0.91-0.95c-0.65-0.35-1.33-0.53-2.04-0.53
			h-1.06v-0.82h12.86v0.82h-1.06c-1.23,0-2.12,0.36-2.68,1.09c-0.37,0.47-0.55,1.61-0.55,3.41v9.16h13.97v-9.16
			c0-1.52-0.1-2.53-0.29-3.01c-0.15-0.37-0.46-0.69-0.93-0.95c-0.64-0.35-1.31-0.53-2.02-0.53h-1.09v-0.82h12.88v0.82h-1.06
			c-1.24,0-2.14,0.36-2.7,1.09c-0.35,0.47-0.53,1.61-0.53,3.41v19.4c0,1.54,0.1,2.55,0.29,3.04c0.15,0.37,0.45,0.69,0.91,0.95
			c0.65,0.35,1.33,0.53,2.04,0.53h1.06v0.82h-12.88v-0.82h1.09c0.71,0,1.38-0.17,2.02-0.51c0.46-0.24,0.78-0.59,0.95-1.08
			c0.18-0.48,0.27-1.46,0.27-2.94V923.74z"/>
	</g>
	<g>
		<path class="st3" d="M1269.15,820.59v-0.82h12.88v0.82h-1.06c-1.24,0-2.14,0.36-2.7,1.09c-0.35,0.47-0.53,1.61-0.53,3.41v19.42
			c0,1.52,0.1,2.53,0.29,3.01c0.15,0.37,0.45,0.69,0.91,0.95c0.65,0.35,1.33,0.53,2.04,0.53h1.06v0.82h-12.88v-0.82h1.09
			c1.23,0,2.12-0.36,2.68-1.09c0.37-0.47,0.55-1.61,0.55-3.41v-19.42c0-1.52-0.1-2.53-0.29-3.01c-0.15-0.37-0.46-0.69-0.93-0.95
			c-0.64-0.35-1.31-0.53-2.02-0.53H1269.15z"/>
	</g>
	<g>
		<path class="st3" d="M1280.13,761.16v0.8h-12.59v-0.8h1.06c1.2,0,2.07-0.35,2.62-1.06c0.35-0.46,0.52-1.57,0.52-3.34v-14.37
			c0-2.21,0.24-4,0.73-5.37c0.48-1.37,1.32-2.57,2.5-3.59c1.18-1.02,2.62-1.53,4.29-1.53c1.36,0,2.43,0.34,3.21,1.01
			c0.78,0.67,1.17,1.44,1.17,2.31c0,0.71-0.18,1.24-0.54,1.6c-0.48,0.45-1.03,0.67-1.67,0.67c-0.46,0-0.88-0.15-1.25-0.46
			c-0.37-0.3-0.83-1.11-1.4-2.43c-0.33-0.78-0.76-1.17-1.28-1.17c-0.39,0-0.75,0.24-1.09,0.72c-0.34,0.48-0.51,1.32-0.51,2.54v20.07
			c0,1.49,0.09,2.47,0.28,2.95c0.14,0.36,0.45,0.67,0.91,0.93c0.62,0.35,1.28,0.52,1.97,0.52H1280.13z"/>
	</g>
	<g>
		<path class="st3" d="M1278.97,660.69l-11.08-11.02c-1.82-1.82-3.37-3.06-4.66-3.71c-1.29-0.66-2.57-1.03-3.86-1.12v-0.82h14.3
			v0.82c-0.86,0-1.47,0.14-1.85,0.43c-0.38,0.29-0.57,0.61-0.57,0.96s0.07,0.67,0.21,0.95c0.14,0.28,0.6,0.81,1.39,1.57l10.37,10.26
			v-9.69c0-1.52-0.1-2.53-0.29-3.01c-0.15-0.37-0.46-0.69-0.93-0.95c-0.64-0.35-1.31-0.53-2.02-0.53h-1.02v-0.82h12.81v0.82h-1.06
			c-1.24,0-2.14,0.36-2.7,1.09c-0.35,0.47-0.53,1.61-0.53,3.41v19.42c0,1.52,0.1,2.53,0.29,3.04c0.15,0.35,0.45,0.67,0.91,0.93
			c0.65,0.35,1.33,0.53,2.04,0.53h1.06v0.82h-12.81v-0.82h1.02c0.69,0,1.37-0.17,2.02-0.51c0.46-0.24,0.78-0.59,0.95-1.06
			c0.18-0.47,0.27-1.45,0.27-2.93v-9.2c-0.3,0.28-1.31,1.22-3.04,2.82c-4.39,4.02-7.04,6.7-7.96,8.05c-0.4,0.59-0.6,1.11-0.6,1.55
			c0,0.34,0.16,0.64,0.47,0.9c0.31,0.26,0.84,0.39,1.57,0.39h0.69v0.82h-11.04v-0.82c0.65-0.01,1.24-0.1,1.77-0.27
			c0.53-0.16,1.18-0.48,1.95-0.94c0.77-0.47,1.71-1.22,2.84-2.25c0.33-0.3,1.83-1.81,4.5-4.54L1278.97,660.69z"/>
	</g>
	<g>
		<path class="st3" d="M1263.4,564.46l-0.73-0.16l2.57-8.16h23.28v0.82h-1.13c-1.27,0-2.18,0.41-2.73,1.24
			c-0.31,0.47-0.47,1.57-0.47,3.28v19.4c0,1.88,0.21,3.05,0.62,3.52c0.58,0.65,1.43,0.98,2.57,0.98h1.13v0.82h-13.61v-0.82
			c1.6,0.01,2.72-0.13,3.36-0.44c0.64-0.31,1.08-0.7,1.32-1.17s0.35-1.6,0.35-3.39v-18.89c0-1.23-0.12-2.07-0.35-2.53
			c-0.18-0.31-0.45-0.54-0.82-0.69c-0.37-0.15-1.52-0.22-3.46-0.22h-2.19c-2.31,0-3.92,0.17-4.85,0.51
			c-0.93,0.34-1.78,0.94-2.55,1.81C1264.94,561.24,1264.17,562.6,1263.4,564.46z"/>
	</g>
	<g>
		<path class="st3" d="M1277.1,468.28l11.62,25.29v-20.08c0-1.85-0.2-3-0.6-3.46c-0.55-0.62-1.41-0.93-2.59-0.93h-1.06v-0.82h10.46
			v0.82h-1.06c-1.27,0-2.17,0.38-2.7,1.15c-0.33,0.47-0.49,1.55-0.49,3.24v19.64c0,1.33,0.15,2.29,0.44,2.88
			c0.21,0.43,0.59,0.79,1.14,1.08c0.55,0.29,1.44,0.43,2.67,0.43v0.82h-8.51l-10.91-23.52l-10.73,23.52h-8.51v-0.82h1.04
			c1.29,0,2.19-0.38,2.73-1.15c0.33-0.47,0.49-1.55,0.49-3.24v-19.64c0-1.85-0.21-3-0.62-3.46c-0.55-0.62-1.41-0.93-2.59-0.93h-1.04
			v-0.82h12.77v0.82h-1.06c-1.29,0-2.19,0.38-2.7,1.15c-0.33,0.47-0.49,1.55-0.49,3.24v20.08l11.59-25.29H1277.1z"/>
	</g>
	<g>
		<path class="st3" d="M1291.7,410.46h-8.03l-18.08-22.18v17.06c0,1.82,0.2,2.95,0.61,3.4c0.54,0.61,1.39,0.92,2.55,0.92h1.03v0.81
			h-10.3v-0.81h1.05c1.25,0,2.14-0.38,2.66-1.13c0.32-0.47,0.48-1.53,0.48-3.18V380.4h0.79l19.5,23.82v-18.21
			c0-1.82-0.2-2.95-0.59-3.4c-0.55-0.61-1.4-0.92-2.55-0.92h-1.05v-0.81h10.3v0.81h-1.03c-1.27,0-2.16,0.38-2.68,1.13
			c-0.32,0.47-0.48,1.53-0.48,3.18v20.57c0.86,1,1.51,1.67,1.95,1.99c0.44,0.32,1.09,0.62,1.95,0.89c0.42,0.13,1.06,0.2,1.92,0.2
			V410.46z"/>
	</g>
	<g>
		<path class="st3" d="M1285,296.28c3.11,2.88,4.66,6.61,4.66,11.17c0,4.47-1.35,8.1-4.04,10.92c-2.69,2.81-6.02,4.22-9.97,4.22
			c-3.91,0-7.25-1.44-10.01-4.32c-2.76-2.88-4.13-6.51-4.13-10.87c0-4.24,1.37-7.78,4.1-10.61c2.73-2.83,5.97-4.25,9.7-4.25
			C1279.07,292.53,1282.3,293.78,1285,296.28z M1269.27,296.96c-1.94,2.42-2.9,6.08-2.9,11c0,4.54,0.88,7.86,2.64,9.96
			c1.76,2.11,3.99,3.16,6.69,3.16c2.53,0,4.56-0.96,6.11-2.88c2.01-2.53,3.01-6.14,3.01-10.83c0-4.58-0.97-8.06-2.9-10.43
			c-1.55-1.91-3.62-2.86-6.19-2.86C1272.98,294.07,1270.83,295.04,1269.27,296.96z"/>
	</g>
	<g>
		<path class="st3" d="M1278.48,218.74v-8.76c0-1.89-0.21-3.07-0.62-3.52c-0.56-0.65-1.41-0.98-2.55-0.98h-1.15v-0.82h12.88v0.82
			h-1.13c-1.27,0-2.18,0.41-2.73,1.24c-0.3,0.46-0.44,1.54-0.44,3.26v19.42c0,1.89,0.2,3.07,0.6,3.52c0.58,0.65,1.43,0.98,2.57,0.98
			h1.13v0.82h-11.02c-2.69,0-4.81-0.28-6.36-0.83c-1.55-0.55-2.86-1.49-3.92-2.8s-1.6-2.87-1.6-4.68c0-2.45,0.81-4.45,2.43-5.99
			s3.91-2.31,6.86-2.31c0.72,0,1.51,0.05,2.35,0.16C1276.62,218.38,1277.52,218.53,1278.48,218.74z M1278.48,220
			c-0.78-0.15-1.48-0.26-2.08-0.33s-1.12-0.11-1.55-0.11c-1.54,0-2.86,0.59-3.98,1.78c-1.12,1.19-1.67,2.73-1.67,4.62
			c0,1.3,0.27,2.51,0.8,3.62s1.29,1.95,2.26,2.5c0.98,0.55,2.08,0.83,3.33,0.83c0.75,0,1.72-0.14,2.9-0.42V220z"/>
	</g>
	<g>
		<path class="st3" d="M1271.99,120.91c-1.46-2.52-3.04-4.37-4.73-5.56c-1.69-1.19-3.62-1.87-5.78-2.04v-0.69
			c1.97,0.07,4.08,0.47,6.33,1.19c2.25,0.72,4.37,1.72,6.38,3c2.01,1.28,3.74,2.64,5.2,4.09c2.06,0.83,3.69,1.71,4.89,2.64
			c1.74,1.39,3.1,3.09,4.07,5.12c0.97,2.02,1.45,4.42,1.45,7.18c0,4.35-1.41,7.96-4.23,10.83c-2.82,2.87-6.23,4.31-10.23,4.31
			c-3.8,0-7.1-1.44-9.88-4.32c-2.78-2.88-4.17-6.52-4.17-10.91c0-3.56,0.99-6.69,2.97-9.38
			C1266.23,123.69,1268.81,121.87,1271.99,120.91z M1275.59,149.34c2.6,0,4.7-0.93,6.29-2.79c2-2.33,3-5.9,3-10.71
			c0-4.71-1.02-8.33-3.05-10.88c-1.57-1.96-3.65-2.94-6.24-2.94c-2.69,0-4.86,0.98-6.5,2.94c-1.93,2.32-2.9,5.74-2.9,10.25
			c0,3.48,0.53,6.4,1.59,8.77c0.82,1.83,1.9,3.18,3.25,4.04C1272.38,148.91,1273.9,149.34,1275.59,149.34z"/>
	</g>
	<g>
		<path class="st3" d="M1270.97,1532.61h11.38l1.99-4.64c0.49-1.14,0.74-1.99,0.74-2.56c0-0.45-0.21-0.84-0.64-1.18
			c-0.43-0.34-1.35-0.56-2.76-0.66v-0.8h9.25v0.8c-1.23,0.22-2.02,0.5-2.38,0.85c-0.74,0.69-1.55,2.1-2.45,4.23l-10.34,24.19H1275
			l-10.23-24.45c-0.82-1.97-1.57-3.24-2.24-3.83c-0.67-0.58-1.61-0.91-2.81-0.99v-0.8h11.59v0.8c-1.17,0.06-1.96,0.25-2.37,0.58
			c-0.41,0.33-0.62,0.74-0.62,1.21c0,0.64,0.29,1.64,0.87,3.01L1270.97,1532.61z M1271.58,1534.21l4.98,11.88l5.12-11.88H1271.58z"
			/>
	</g>
	<g>
		<g>
			<path class="st3" d="M49.21,1449.61c2.08,0.44,3.64,1.15,4.68,2.13c1.43,1.36,2.15,3.02,2.15,4.99c0,1.49-0.47,2.92-1.42,4.29
				c-0.95,1.37-2.24,2.36-3.89,2.99s-4.16,0.94-7.55,0.94H29v-0.82h1.13c1.26,0,2.16-0.4,2.7-1.2c0.34-0.52,0.51-1.62,0.51-3.3
				v-19.42c0-1.86-0.21-3.04-0.64-3.52c-0.58-0.65-1.43-0.98-2.57-0.98H29v-0.82h12.99c2.42,0,4.37,0.18,5.83,0.53
				c2.22,0.53,3.91,1.47,5.08,2.83c1.17,1.35,1.75,2.91,1.75,4.67c0,1.51-0.46,2.86-1.37,4.05S51,1449.03,49.21,1449.61z
				 M37.6,1448.41c0.55,0.1,1.17,0.18,1.87,0.23c0.7,0.05,1.47,0.08,2.32,0.08c2.16,0,3.78-0.23,4.87-0.7
				c1.09-0.47,1.92-1.18,2.49-2.14c0.58-0.96,0.86-2.01,0.86-3.15c0-1.76-0.72-3.26-2.15-4.5c-1.43-1.24-3.52-1.86-6.27-1.86
				c-1.48,0-2.81,0.16-3.99,0.49V1448.41z M37.6,1462.77c1.71,0.4,3.41,0.6,5.08,0.6c2.67,0,4.71-0.6,6.12-1.81
				c1.4-1.2,2.11-2.69,2.11-4.47c0-1.17-0.32-2.29-0.95-3.37c-0.64-1.08-1.67-1.93-3.1-2.55s-3.21-0.93-5.32-0.93
				c-0.92,0-1.7,0.01-2.35,0.04s-1.17,0.08-1.57,0.16V1462.77z"/>
		</g>
		<g>
			<path class="st3" d="M54.15,1347.02l0.66,9.77h-0.66c-0.88-2.93-2.13-5.03-3.75-6.32c-1.63-1.29-3.58-1.93-5.85-1.93
				c-1.91,0-3.63,0.48-5.17,1.45s-2.75,2.51-3.64,4.63c-0.88,2.12-1.32,4.76-1.32,7.91c0,2.6,0.42,4.85,1.25,6.76
				c0.83,1.91,2.09,3.37,3.76,4.39s3.59,1.53,5.73,1.53c1.87,0,3.51-0.4,4.94-1.2c1.43-0.8,3-2.38,4.71-4.76l0.66,0.42
				c-1.44,2.56-3.12,4.43-5.05,5.62c-1.92,1.19-4.2,1.78-6.85,1.78c-4.76,0-8.45-1.77-11.07-5.3c-1.95-2.63-2.93-5.72-2.93-9.29
				c0-2.87,0.64-5.5,1.93-7.91c1.29-2.4,3.06-4.26,5.31-5.59c2.25-1.32,4.72-1.98,7.39-1.98c2.08,0,4.13,0.51,6.15,1.53
				c0.59,0.31,1.02,0.47,1.27,0.47c0.38,0,0.71-0.13,1-0.4c0.37-0.38,0.63-0.91,0.78-1.59H54.15z"/>
		</g>
		<g>
			<path class="st3" d="M27.38,1289.2v-0.82h1.13c1.27,0,2.17-0.41,2.7-1.22c0.33-0.49,0.49-1.58,0.49-3.28v-19.42
				c0-1.88-0.21-3.05-0.62-3.52c-0.58-0.65-1.43-0.98-2.57-0.98h-1.13v-0.82h12.24c4.49,0,7.91,0.51,10.25,1.53
				c2.34,1.02,4.23,2.72,5.65,5.1c1.43,2.38,2.14,5.13,2.14,8.25c0,4.18-1.27,7.68-3.81,10.49c-2.85,3.13-7.2,4.7-13.03,4.7H27.38z
				 M35.96,1287.03c1.88,0.41,3.45,0.62,4.72,0.62c3.43,0,6.27-1.2,8.53-3.61c2.26-2.41,3.39-5.67,3.39-9.8
				c0-4.15-1.13-7.43-3.39-9.82c-2.26-2.39-5.17-3.59-8.71-3.59c-1.33,0-2.84,0.21-4.54,0.64V1287.03z"/>
		</g>
		<g>
			<path class="st3" d="M39.75,1085.03v11.82h5.48c1.26,0,2.18-0.28,2.76-0.83c0.58-0.55,0.97-1.65,1.16-3.29h0.82v10.18h-0.82
				c-0.01-1.17-0.17-2.02-0.45-2.57c-0.29-0.55-0.69-0.96-1.2-1.23c-0.51-0.27-1.27-0.41-2.27-0.41h-5.48v9.44
				c0,1.52,0.1,2.53,0.29,3.01c0.15,0.37,0.46,0.69,0.93,0.95c0.65,0.35,1.33,0.53,2.04,0.53h1.09v0.82h-12.9v-0.82h1.06
				c1.24,0,2.14-0.36,2.7-1.09c0.35-0.47,0.53-1.61,0.53-3.41v-19.42c0-1.52-0.1-2.53-0.29-3.01c-0.15-0.37-0.45-0.69-0.91-0.95
				c-0.64-0.35-1.32-0.53-2.04-0.53h-1.06v-0.82h22.37l0.29,6.61h-0.78c-0.38-1.4-0.83-2.43-1.34-3.09
				c-0.51-0.66-1.14-1.13-1.88-1.43s-1.9-0.44-3.47-0.44H39.75z"/>
		</g>
		<g>
			<path class="st3" d="M38.19,1172.91v11.88h6.61c1.71,0,2.86-0.26,3.44-0.78c0.77-0.68,1.2-1.88,1.29-3.59h0.82v10.46h-0.82
				c-0.21-1.46-0.41-2.4-0.62-2.82c-0.27-0.52-0.7-0.92-1.31-1.22c-0.61-0.3-1.54-0.44-2.79-0.44h-6.61v9.91
				c0,1.33,0.06,2.14,0.18,2.43c0.12,0.29,0.33,0.52,0.62,0.69s0.86,0.25,1.68,0.25h5.1c1.7,0,2.93-0.12,3.7-0.35s1.51-0.7,2.22-1.4
				c0.92-0.92,1.85-2.3,2.82-4.15h0.89l-2.59,7.54H29.64v-0.82h1.06c0.71,0,1.38-0.17,2.02-0.51c0.47-0.24,0.79-0.59,0.96-1.06
				c0.17-0.47,0.25-1.44,0.25-2.9v-19.53c0-1.91-0.19-3.08-0.58-3.52c-0.53-0.59-1.42-0.89-2.66-0.89h-1.06v-0.82H52.8l0.33,6.58
				h-0.86c-0.31-1.58-0.65-2.67-1.03-3.26c-0.38-0.59-0.93-1.04-1.67-1.35c-0.59-0.22-1.63-0.33-3.13-0.33H38.19z"/>
		</g>
		<g>
			<path class="st3" d="M53.06,995.52l0.74,9.07h-0.74c-0.75-2.26-1.72-3.96-2.9-5.11c-1.71-1.65-3.91-2.48-6.59-2.48
				c-3.66,0-6.44,1.45-8.35,4.35c-1.6,2.44-2.4,5.36-2.4,8.73c0,2.74,0.53,5.24,1.59,7.5c1.06,2.26,2.45,3.92,4.17,4.97
				s3.48,1.58,5.29,1.58c1.06,0,2.08-0.13,3.07-0.4c0.99-0.27,1.94-0.66,2.86-1.19v-8.31c0-1.44-0.11-2.38-0.33-2.83
				c-0.22-0.45-0.56-0.78-1.02-1.02c-0.46-0.23-1.27-0.35-2.43-0.35v-0.81h11.13v0.81h-0.53c-1.1,0-1.86,0.37-2.27,1.1
				c-0.28,0.52-0.42,1.55-0.42,3.09v8.8c-1.63,0.88-3.23,1.52-4.81,1.93c-1.58,0.41-3.34,0.61-5.28,0.61
				c-5.55,0-9.77-1.78-12.66-5.34c-2.16-2.67-3.24-5.75-3.24-9.24c0-2.53,0.61-4.95,1.82-7.27c1.44-2.76,3.42-4.88,5.94-6.36
				c2.11-1.23,4.59-1.84,7.46-1.84c1.05,0,2,0.08,2.85,0.25c0.86,0.17,2.07,0.54,3.64,1.12c0.79,0.3,1.32,0.45,1.59,0.45
				s0.5-0.12,0.69-0.37c0.19-0.25,0.31-0.73,0.35-1.45H53.06z"/>
		</g>
		<g>
			<path class="st3" d="M35.54,921.67H49.5v-8.6c0-1.54-0.1-2.55-0.29-3.04c-0.15-0.37-0.46-0.69-0.93-0.95
				c-0.64-0.35-1.31-0.53-2.02-0.53H45.2v-0.82h12.86v0.82H57c-0.71,0-1.38,0.17-2.02,0.51c-0.47,0.24-0.79,0.59-0.96,1.08
				c-0.17,0.48-0.25,1.46-0.25,2.94v19.4c0,1.52,0.1,2.53,0.29,3.01c0.15,0.37,0.45,0.69,0.91,0.95c0.65,0.35,1.33,0.53,2.04,0.53
				h1.06v0.82H45.2v-0.82h1.06c1.23,0,2.12-0.36,2.68-1.09c0.37-0.47,0.55-1.61,0.55-3.41v-9.16H35.54v9.16
				c0,1.52,0.1,2.53,0.29,3.01c0.15,0.37,0.46,0.69,0.93,0.95c0.64,0.35,1.31,0.53,2.02,0.53h1.09v0.82H26.98v-0.82h1.06
				c1.24,0,2.14-0.36,2.7-1.09c0.35-0.47,0.53-1.61,0.53-3.41v-19.4c0-1.54-0.1-2.55-0.29-3.04c-0.15-0.37-0.45-0.69-0.91-0.95
				c-0.65-0.35-1.33-0.53-2.04-0.53h-1.06v-0.82h12.88v0.82h-1.09c-0.71,0-1.38,0.17-2.02,0.51c-0.46,0.24-0.78,0.59-0.95,1.08
				c-0.18,0.48-0.27,1.46-0.27,2.94V921.67z"/>
		</g>
		<g>
			<path class="st3" d="M48.96,849.02v0.82H36.08v-0.82h1.06c1.24,0,2.14-0.36,2.7-1.09c0.35-0.47,0.53-1.61,0.53-3.41V825.1
				c0-1.52-0.1-2.53-0.29-3.01c-0.15-0.37-0.45-0.69-0.91-0.95c-0.65-0.35-1.33-0.53-2.04-0.53h-1.06v-0.82h12.88v0.82h-1.09
				c-1.23,0-2.12,0.36-2.68,1.09c-0.37,0.47-0.55,1.61-0.55,3.41v19.42c0,1.52,0.1,2.53,0.29,3.01c0.15,0.37,0.46,0.69,0.93,0.95
				c0.64,0.35,1.31,0.53,2.02,0.53H48.96z"/>
		</g>
		<g>
			<path class="st3" d="M37.98,732.7v-0.8h12.59v0.8h-1.06c-1.2,0-2.07,0.35-2.62,1.06c-0.35,0.46-0.52,1.57-0.52,3.34v14.37
				c0,2.21-0.24,4-0.73,5.37c-0.48,1.37-1.32,2.57-2.5,3.59c-1.18,1.02-2.62,1.53-4.29,1.53c-1.36,0-2.43-0.34-3.21-1.01
				c-0.78-0.67-1.17-1.44-1.17-2.31c0-0.71,0.18-1.24,0.54-1.6c0.48-0.45,1.03-0.67,1.67-0.67c0.46,0,0.88,0.15,1.25,0.46
				s0.83,1.11,1.4,2.43c0.33,0.78,0.76,1.17,1.28,1.17c0.39,0,0.75-0.24,1.09-0.72c0.34-0.48,0.51-1.32,0.51-2.54V737.1
				c0-1.49-0.09-2.47-0.28-2.95c-0.14-0.36-0.45-0.67-0.91-0.93c-0.62-0.35-1.28-0.52-1.97-0.52H37.98z"/>
		</g>
		<g>
			<path class="st3" d="M39.13,657.42l11.08,11.02c1.82,1.82,3.37,3.06,4.66,3.71s2.57,1.03,3.86,1.12v0.82h-14.3v-0.82
				c0.86,0,1.47-0.14,1.85-0.43c0.38-0.29,0.57-0.61,0.57-0.96s-0.07-0.67-0.21-0.95c-0.14-0.28-0.6-0.81-1.39-1.57l-10.37-10.26
				v9.69c0,1.52,0.1,2.53,0.29,3.01c0.15,0.37,0.46,0.69,0.93,0.95c0.64,0.35,1.31,0.53,2.02,0.53h1.02v0.82H26.31v-0.82h1.06
				c1.24,0,2.14-0.36,2.7-1.09c0.35-0.47,0.53-1.61,0.53-3.41v-19.42c0-1.52-0.1-2.53-0.29-3.04c-0.15-0.35-0.45-0.67-0.91-0.93
				c-0.65-0.35-1.33-0.53-2.04-0.53h-1.06v-0.82h12.81v0.82h-1.02c-0.69,0-1.37,0.17-2.02,0.51c-0.46,0.24-0.78,0.59-0.95,1.06
				c-0.18,0.47-0.27,1.45-0.27,2.93v9.2c0.3-0.28,1.31-1.22,3.04-2.82c4.39-4.02,7.04-6.7,7.96-8.05c0.4-0.59,0.6-1.11,0.6-1.55
				c0-0.34-0.16-0.64-0.47-0.9c-0.31-0.26-0.83-0.39-1.57-0.39h-0.69v-0.82h11.04v0.82c-0.65,0.01-1.24,0.1-1.77,0.27
				c-0.53,0.16-1.18,0.48-1.95,0.94s-1.71,1.22-2.84,2.25c-0.33,0.3-1.83,1.81-4.5,4.54L39.13,657.42z"/>
		</g>
		<g>
			<path class="st3" d="M54.71,577.9l0.73,0.16l-2.57,8.16H29.6v-0.82h1.13c1.27,0,2.18-0.41,2.73-1.24
				c0.31-0.47,0.47-1.57,0.47-3.28v-19.4c0-1.88-0.21-3.05-0.62-3.52c-0.58-0.65-1.43-0.98-2.57-0.98H29.6v-0.82h13.61v0.82
				c-1.6-0.01-2.72,0.13-3.36,0.44c-0.64,0.31-1.08,0.7-1.32,1.17c-0.24,0.47-0.35,1.6-0.35,3.39v18.89c0,1.23,0.12,2.07,0.35,2.53
				c0.18,0.31,0.45,0.54,0.82,0.69s1.52,0.22,3.46,0.22H45c2.31,0,3.92-0.17,4.85-0.51s1.78-0.94,2.55-1.81
				C53.18,581.12,53.94,579.76,54.71,577.9z"/>
		</g>
		<g>
			<path class="st3" d="M41.01,498.34L29.4,473.05v20.08c0,1.85,0.2,3,0.6,3.46c0.55,0.62,1.41,0.93,2.59,0.93h1.06v0.82H23.19
				v-0.82h1.06c1.27,0,2.17-0.38,2.7-1.15c0.33-0.47,0.49-1.55,0.49-3.24v-19.64c0-1.33-0.15-2.29-0.44-2.88
				c-0.21-0.43-0.59-0.79-1.14-1.08c-0.55-0.29-1.44-0.43-2.67-0.43v-0.82h8.51l10.91,23.52l10.73-23.52h8.51v0.82h-1.04
				c-1.29,0-2.19,0.38-2.73,1.15c-0.33,0.47-0.49,1.55-0.49,3.24v19.64c0,1.85,0.21,3,0.62,3.46c0.55,0.62,1.41,0.93,2.59,0.93h1.04
				v0.82H49.08v-0.82h1.06c1.29,0,2.19-0.38,2.7-1.15c0.33-0.47,0.49-1.55,0.49-3.24v-20.08l-11.59,25.29H41.01z"/>
		</g>
		<g>
			<path class="st3" d="M26.41,380.41h8.03l18.08,22.18v-17.06c0-1.82-0.2-2.95-0.61-3.4c-0.54-0.61-1.39-0.92-2.55-0.92h-1.03
				v-0.81h10.3v0.81h-1.05c-1.25,0-2.14,0.38-2.66,1.13c-0.32,0.47-0.48,1.53-0.48,3.18v24.93h-0.79l-19.5-23.82v18.21
				c0,1.82,0.2,2.95,0.59,3.4c0.55,0.61,1.4,0.92,2.55,0.92h1.05v0.81h-10.3v-0.81h1.03c1.27,0,2.16-0.38,2.68-1.13
				c0.32-0.47,0.48-1.53,0.48-3.18v-20.57c-0.86-1-1.51-1.67-1.95-1.99c-0.44-0.32-1.09-0.62-1.95-0.89
				c-0.42-0.13-1.06-0.2-1.92-0.2V380.41z"/>
		</g>
		<g>
			<path class="st3" d="M42.8,292.52c3.73,0,6.96,1.42,9.7,4.25c2.73,2.83,4.1,6.37,4.1,10.61c0,4.37-1.38,7.99-4.13,10.87
				c-2.76,2.88-6.09,4.32-10.01,4.32c-3.96,0-7.28-1.41-9.97-4.22s-4.04-6.45-4.04-10.92c0-4.56,1.55-8.29,4.66-11.17
				C35.81,293.77,39.04,292.52,42.8,292.52z M42.39,294.07c-2.57,0-4.64,0.95-6.19,2.86c-1.94,2.37-2.9,5.85-2.9,10.43
				c0,4.69,1,8.3,3.01,10.83c1.54,1.92,3.58,2.88,6.11,2.88c2.7,0,4.93-1.05,6.69-3.16c1.76-2.11,2.64-5.43,2.64-9.96
				c0-4.92-0.97-8.59-2.9-11C47.28,295.03,45.13,294.07,42.39,294.07z"/>
		</g>
		<g>
			<path class="st3" d="M39.63,220.63v8.76c0,1.89,0.21,3.07,0.62,3.52c0.56,0.65,1.41,0.98,2.55,0.98h1.15v0.82H31.07v-0.82h1.13
				c1.27,0,2.18-0.41,2.73-1.24c0.3-0.46,0.44-1.54,0.44-3.26v-19.42c0-1.89-0.2-3.07-0.6-3.52c-0.58-0.65-1.43-0.98-2.57-0.98
				h-1.13v-0.82h11.02c2.69,0,4.81,0.28,6.36,0.83s2.86,1.49,3.92,2.8s1.6,2.87,1.6,4.68c0,2.45-0.81,4.45-2.43,5.99
				c-1.62,1.54-3.91,2.31-6.86,2.31c-0.72,0-1.51-0.05-2.35-0.16C41.49,221,40.59,220.84,39.63,220.63z M39.63,219.37
				c0.78,0.15,1.48,0.26,2.08,0.33c0.61,0.07,1.12,0.11,1.55,0.11c1.54,0,2.86-0.59,3.98-1.78c1.12-1.19,1.67-2.73,1.67-4.62
				c0-1.3-0.27-2.51-0.8-3.62s-1.29-1.95-2.26-2.5c-0.98-0.55-2.08-0.83-3.33-0.83c-0.75,0-1.72,0.14-2.9,0.42V219.37z"/>
		</g>
		<g>
			<path class="st3" d="M46.88,1542.99H35.5l-1.99,4.64c-0.49,1.14-0.74,1.99-0.74,2.56c0,0.45,0.21,0.84,0.64,1.18
				c0.43,0.34,1.35,0.56,2.76,0.66v0.8h-9.25v-0.8c1.23-0.22,2.02-0.5,2.38-0.85c0.74-0.69,1.55-2.1,2.45-4.23l10.34-24.19h0.76
				l10.23,24.45c0.82,1.97,1.57,3.24,2.24,3.83c0.67,0.58,1.61,0.91,2.81,0.99v0.8H46.53v-0.8c1.17-0.06,1.96-0.25,2.37-0.58
				c0.41-0.33,0.62-0.74,0.62-1.21c0-0.64-0.29-1.64-0.87-3.01L46.88,1542.99z M46.27,1541.38l-4.98-11.88l-5.12,11.88H46.27z"/>
		</g>
		<g>
			<path class="st3" d="M46.95,142.71c1.46,2.52,3.04,4.37,4.73,5.56c1.69,1.19,3.62,1.87,5.78,2.04V151
				c-1.97-0.07-4.08-0.47-6.33-1.19c-2.25-0.72-4.37-1.72-6.38-3c-2.01-1.28-3.74-2.64-5.2-4.09c-2.06-0.83-3.69-1.71-4.89-2.64
				c-1.74-1.39-3.1-3.09-4.07-5.12c-0.97-2.02-1.45-4.42-1.45-7.18c0-4.35,1.41-7.96,4.23-10.83c2.82-2.87,6.23-4.31,10.23-4.31
				c3.8,0,7.1,1.44,9.88,4.32c2.78,2.88,4.17,6.52,4.17,10.91c0,3.56-0.99,6.69-2.97,9.38C52.7,139.93,50.12,141.76,46.95,142.71z
				 M43.34,114.29c-2.6,0-4.7,0.93-6.29,2.79c-2,2.33-3,5.9-3,10.71c0,4.71,1.02,8.33,3.05,10.88c1.57,1.96,3.65,2.94,6.24,2.94
				c2.69,0,4.86-0.98,6.5-2.94c1.93-2.32,2.9-5.74,2.9-10.25c0-3.48-0.53-6.4-1.59-8.77c-0.82-1.83-1.9-3.18-3.25-4.04
				S45.03,114.29,43.34,114.29z"/>
		</g>
	</g>
</g>
</svg>
