<?xml version="1.0" encoding="UTF-8" standalone="no"?>
<!DOCTYPE svg PUBLIC "-//W3C//DTD SVG 1.1//EN"
"http://www.w3.org/Graphics/SVG/1.1/DTD/svg11.dtd">
<svg xmlns="http://www.w3.org/2000/svg"
     xmlns:xlink="http://www.w3.org/1999/xlink"
     version="1.1" id="svgMain" viewBox="0 0 4096 4096" >
	 
	 
<g transform="rotate(180,1024,1024)">

     <path d="

M853 1075h341v-128h-341v128zM1499 414q-17 91 -118 91h-714q-102 0 -118 -91h950zM1405 879l11 -130q49 0 84.5 -35t35.5 -84v0q0 -53 -40 -89q75 -59 75 -151v-187h-1095v187v0q0 93 76 150q-40 35 -40 90v0q0 49 35 84t84 35l13 130h346v-128h68v128h347zM1398 947
h-136v128h124zM1380 1143h-322v128h310zM1361 1339l-99 1v127h-68v-127h-341v127h-67v-127h-97l11 127l-170 101v275h204v-102h171v102h238v-102h171v102h206v-275l-171 -101zM669 1143l13 128h308v-128h-321zM651 948l12 126l123 1v-128zM1450 1606h-853l119 -72h308h307z
M1024 676h-393q-51 0 -51 -46v0q0 -47 51 -47h785q52 0 52 47v0q0 46 -52 46h-392z
	 
	 " />

</g>	 
	 
	 
	 
</svg>