<?xml version="1.0" encoding="UTF-8" standalone="no"?>
<!DOCTYPE svg PUBLIC "-//W3C//DTD SVG 1.1//EN" "http://www.w3.org/Graphics/SVG/1.1/DTD/svg11.dtd">
<!-- Создано Microsoft Visio, экспорт SVG 10._Медведь.svg медведь -->
<svg xmlns="http://www.w3.org/2000/svg" xmlns:xlink="http://www.w3.org/1999/xlink" xmlns:ev="http://www.w3.org/2001/xml-events"
		xmlns:v="http://schemas.microsoft.com/visio/2003/SVGExtensions/" width="0.275591in" height="0.275591in"
		viewBox="0 0 19.8425 19.8425" xml:space="preserve" color-interpolation-filters="sRGB" class="st2">
	<v:documentProperties v:langID="1049" v:metric="true" v:viewMarkup="false">
		<v:userDefs>
			<v:ud v:nameU="msvSubprocessMaster" v:prompt="" v:val="VT4(Rectangle)"/>
			<v:ud v:nameU="msvNoAutoConnect" v:val="VT0(1):26"/>
		</v:userDefs>
	</v:documentProperties>

	<style type="text/css">
	<![CDATA[
		.st1 {fill:#000000;stroke:none;stroke-linecap:butt;stroke-width:0.128156}
		.st2 {fill:none;fill-rule:evenodd;font-size:12px;overflow:visible;stroke-linecap:square;stroke-miterlimit:3}
	]]>
	</style>

	<g v:mID="7" v:index="3" v:groupContext="foregroundPage">
		<v:userDefs>
			<v:ud v:nameU="msvThemeOrder" v:val="VT0(0):26"/>
		</v:userDefs>
		<title>медведь</title>
		<v:pageProperties v:drawingScale="0.0393701" v:pageScale="0.0393701" v:drawingUnits="24" v:shadowOffsetX="9"
				v:shadowOffsetY="-9"/>
		<g id="group1-1" transform="translate(-0.0116176,-0.0116172)" v:mID="1" v:groupContext="group">
			<title>Лист.1</title>
			<g id="group2-2" v:mID="2" v:groupContext="group">
				<title>Лист.2</title>
				<g id="shape3-3" v:mID="3" v:groupContext="shape">
					<title>Лист.3</title>
					<path d="M16.6 0 C15.09 0 13.83 1.19 13.53 2.77 L6.23 2.77 C5.88 1.19 4.63 0 3.16 0 C1.43 0 0 1.63 0 3.61 C0
								 5 0.69 6.23 1.73 6.83 L1.73 10.74 C1.73 15.78 5.53 19.84 9.94 19.84 C14.35 19.84 18.16 15.78 18.16
								 10.74 L18.16 6.83 C19.15 6.23 19.84 5 19.84 3.61 C19.8 1.63 18.37 0 16.6 0 ZM5.75 7.47 C5.75 6.93
								 6.14 6.43 6.66 6.43 C7.18 6.43 7.57 6.88 7.57 7.47 C7.57 8.07 7.18 8.51 6.66 8.51 C6.14 8.51 5.75
								 8.07 5.75 7.47 ZM9.86 18.06 C8.21 18.06 6.83 16.03 6.83 13.56 C6.83 11.08 8.17 9.06 9.86 9.06 C11.54
								 9.06 12.88 11.08 12.88 13.56 C12.88 16.03 11.54 18.06 9.86 18.06 ZM13.1 8.51 C12.58 8.51 12.19 8.07
								 12.19 7.47 C12.19 6.93 12.58 6.43 13.1 6.43 C13.57 6.43 14.01 6.88 14.01 7.47 C14.01 8.07 13.62
								 8.51 13.1 8.51 Z" class="st1"/>
				</g>
				<g id="shape4-5" v:mID="4" v:groupContext="shape" transform="translate(7.60846,-4.89882)">
					<title>Лист.4</title>
					<path d="M0.69 16.58 C0.43 16.58 0.17 16.73 0.09 16.97 C0 17.27 0.04 17.57 0.22 17.76 L1.77 19.55 C2.03 19.84
								 2.46 19.84 2.72 19.55 L4.28 17.76 C4.45 17.57 4.54 17.27 4.41 16.97 C4.32 16.68 4.06 16.58 3.8 16.58
								 L0.69 16.58 Z" class="st1"/>
				</g>
			</g>
		</g>
	</g>
</svg>
