<?xml version="1.0" encoding="UTF-8" standalone="no"?>
<!DOCTYPE svg PUBLIC "-//W3C//DTD SVG 1.1//EN"
"http://www.w3.org/Graphics/SVG/1.1/DTD/svg11.dtd">
<svg xmlns="http://www.w3.org/2000/svg"
     xmlns:xlink="http://www.w3.org/1999/xlink"
     version="1.1" id="svgMain" viewBox="0 0 4096 4096" >
	 
	 
<g transform="rotate(180,1024,1024)">

     <path d="
	 
	 
M535 405Q535 383 503 383Q468 383 468 405Q468 511 399 574Q340 629 281 629Q230 629 200 602T170 525Q170 490 214 426Q248 376 277 352Q296 336 343 336Q392 336 501 354Q611 336 660 336Q708 336
726 352Q760 382 793 431Q833 490 833 525Q833 575 803 602T722 629Q665 629 604 573Q535 511 535 405ZM806 526Q806 488 762 435Q722 388 692 373Q667 369 642 369Q564 369 565 400Q566 496 622 551Q668 598 720 598Q756 598 779 580Q806 561 806 526ZM687 208Q687
227 618 235Q555 241 503 241Q453 241 415 237L385 234Q317 225 317 209Q317 191 351 191Q365 191 406 195Q480 203 502 203Q527 203 577 197T652 191Q687 191 687 208ZM757 178Q755 93 502 93Q251 93 249 177T224 320Q211 354 172 407Q123 472 123 524Q123 587
169 630T278 673Q343 673 402 625Q402 654 405 681Q406 690 413 704Q423 730 471 762V791L420 822V867H466L481 913H523L540 867H585V822L534 791V762Q582 727 592 704Q598 691 601 668Q602 653 604 625Q662 673 726 673Q788 673 835 631T882 524Q882 472 833 406Q820
388 804 365Q775 320 764 259Q758 228 757 178ZM198 526Q198 560 223 579T282 598Q335 598 382 550Q436 496 438 400Q439 384 418 377T362 369Q336 369 311 373Q278 389 240 436Q198 489 198 526Z


	 " />

</g>	 
	 
	 
	 
</svg>