<?xml version="1.0" encoding="UTF-8" standalone="no"?>
<!DOCTYPE svg PUBLIC "-//W3C//DTD SVG 1.1//EN"
"http://www.w3.org/Graphics/SVG/1.1/DTD/svg11.dtd">
<svg xmlns="http://www.w3.org/2000/svg"
     xmlns:xlink="http://www.w3.org/1999/xlink"
     version="1.1" id="svgMain" viewBox="0 0 2048 2048" >
  <path transform="rotate(180, 1024, 1024)" d="M374 0q-225 0 -228 75q-3 81 -21 130q-12 31 -48 78q-44 59 -44 105q0 43 25 76.5t65 48.5q27 10 50 10q55 -1 111 -44h1q0 26 3 51q0 7 7 21q9 22 52 52v26l-45 27v41h41l14 43h34l15 -43h41v-41l-46 -27v-26q40 -28 53 -52q6 -15 6.5 -23t1.5 -24.5t1 -24.5h1 q52 43 111 44q39 1 75.5 -22t52.5 -59q12 -26 12 -54q0 -48 -43 -105q-19 -25 -27 -37q-13 -20 -21 -41q-19 -49 -22 -130q-2 -75 -228 -75z M374 378q0 2 11 17q27 40 34 67q3 23 3 32q0 67 -47 67q-49 0 -49 -67q0 -13 3 -32q8 -31 38 -72q7 -10 7 -12z M675 381 q0 50 -35 77q-28 24 -65 24q-51 0 -106 -49q-68 -60 -74 -156q-1 -8 41 -17q28 -6 88 -8l30 -1q15 -1 26 -1h4h16q18 23 52 71q23 36 23 60z M374 229q-20 -9 -81 -15q-30 -2 -92 -6l-33 -3q12 -49 15 -94q77 24 191 24q115 0 191 -24q4 52 15 94q-42 2 -125 9q-21 2 -41 5 q-24 3 -40 10z M73 381q0 -22 24 -60l1 -2q15 -25 38 -52q11 -13 12 -17h20q51 0 118 7q29 3 48.5 8t19.5 12q-9 97 -75 156q-55 49 -106 49q-63 0 -90 -56q-10 -21 -10 -45z M374 40q41 0 89 5q68 6 68 17q0 15 -42 20q-62 9 -114 9t-115 -9q-42 -5 -42 -20q0 -11 68 -17 q47 -5 88 -5z" /></svg>