<?xml version="1.0" encoding="UTF-8" standalone="no"?>
<!DOCTYPE svg PUBLIC "-//W3C//DTD SVG 1.1//EN"
"http://www.w3.org/Graphics/SVG/1.1/DTD/svg11.dtd">
<svg xmlns="http://www.w3.org/2000/svg"
     xmlns:xlink="http://www.w3.org/1999/xlink"
     version="1.1" id="svgMain" viewBox="0 0 4096 4096" >
	 
	 
<g transform="rotate(180,1024,1024)">

     <path d="
	 

M439 385Q375 385 375 365Q375 347 431 344Q429 344 500 344Q625 344 625 365Q625 385 561 385H439ZM439 463Q407 463 391 460T375 443Q375 428 401 426Q434 423 500 423Q566 423 600 426Q625 428 625
443Q625 463 561 463H439ZM671 409Q671 399 683 363Q687 352 691 336T696 313Q696 270 607 261Q648 246 671 242Q702 237 729 237Q740 237 771 238T802 240Q839 240 865 217Q884 200 905 160Q886 132 868 103Q847 71 818 59Q813 80 770 88Q760 90 708 94Q552 108
500 160Q451 110 351 101Q331 99 292 94Q244 90 231 88Q186 79 182 59Q150 73 121 122Q108 144 95 160Q116 201 135 217Q160 240 198 240Q197 240 228 239T271 237Q330 237 392 261Q304 270 304 313Q304 327 317 358T330 404Q254 498 254 568Q254 650 335 718Q406
778 440 783Q413 815 413 853Q413 890 437 909T500 929Q537 929 562 909T587 853Q587 816 560 783Q583 777 631 744Q691 702 722 650Q746 611 746 568Q746 495 671 409ZM523 525V583H566V630H523V684H477V630H434V583H477V525H523ZM500 878Q487 878 477 869T467
848Q467 835 477 826T500 817Q531 817 531 848Q531 878 500 878Z
	 
	 

	 " />

</g>	 
	 
	 
	 
</svg>