<?xml version="1.0" encoding="UTF-8" standalone="no"?>
<!DOCTYPE svg PUBLIC "-//W3C//DTD SVG 1.1//EN"
"http://www.w3.org/Graphics/SVG/1.1/DTD/svg11.dtd">
<svg xmlns="http://www.w3.org/2000/svg"
     xmlns:xlink="http://www.w3.org/1999/xlink"
     version="1.1" id="svgMain" viewBox="0 0 2048 2048" >
  <path transform="rotate(180, 1024, 1024)" d="M423 252h12q2 0 6 1h7q25 0 75.5 -4t76.5 -4q21 0 21 5q-1 2 -2 3v1l1 1q0 25 -89 37q-60 9 -107 9q-48 0 -107 -8q-89 -13 -89 -38v-2q-1 -1 -1 -3q0 -5 20 -5q4 0 57 4q8 0 25 1l25 2q28 1 44 1h7q4 -1 6 -1h12z M606 202q-93 11 -182 11q-25 0 -50 -1l-48 -2 q-28 -1 -85 -8q7 -5 10.5 -18.5t3.5 -25.5q0 -20 -7 -25q76 12 176 12q101 0 175 -12q-7 5 -7 25q0 34 14 44z M424 105q-68 0 -129 -5q-55 -6 -55 -26q0 -28 184 -28q183 0 183 28q0 9 -15 17q-29 10 -97 13q-38 1 -71 1z M424 694q-28 0 -28 -28t28 -28q27 0 27 28t-27 28z M424 727q25 0 43 -19t18 -44q0 -10 -8 -30q-10 -24 -11 -30q-5 -18 -5 -49q0 -62 24 -162q61 127 61 192q0 15 -5 35q-2 9 -2 14q0 25 18.5 44t44.5 19t45 -18.5t19 -44.5q0 -29 -20 -46q-25 -15 -30 -55q-2 -17 -2 -44q0 -35 6 -95q72 74 72 123q0 7 -3 25q-2 14 -2 18 q0 26 18.5 44.5t44.5 18.5t44.5 -18.5t18.5 -44.5q0 -46 -52 -69q-3 -50 -19 -116l-14 -57q-3 -10 -8 -30q0 -16 -35 -53q-48 -49 -48 -76q0 -11 11 -33q14 -31 15 -33q5 -13 5 -30q0 -3 -1 -8v-8v-2v-1q0 -27 -115 -38q-46 -5 -109 -6h-20q-53 0 -129 7q-116 10 -116 37 l1 1v2v4q-1 3 -1 4v8q0 23 15 54.5t15 41.5q0 8 -2 13q-7 25 -44 62t-37 54q-11 43 -31 130q-7 38 -9 73q-52 23 -52 69q0 26 18.5 44.5t44.5 18.5t44.5 -18.5t18.5 -44.5q0 -4 -2 -18q-3 -18 -3 -25q0 -49 72 -123q6 60 6 95q0 53 -10 74q-6 13 -22 26q-11 7 -15.5 15.5 t-4.5 29.5q0 26 19 44.5t45 18.5q25 0 44 -19t19 -44q0 -5 -3 -14q-4 -20 -4 -35q0 -64 61 -192q15 66 18 93q6 43 6 70q0 44 -18 85q-6 16 -6 23q0 25 18.5 44t44.5 19z M750 588q-11 0 -19 -8.5t-8 -19.5q0 -28 27 -28t27 28t-27 28z M602 659q-11 0 -19 -7.5t-8 -19.5 q0 -29 27 -29q29 0 29 29q0 11 -8.5 19t-20.5 8z M244 659q-28 0 -28 -27q0 -29 28 -29q27 0 27 29q0 27 -27 27z M96 588q-28 0 -28 -28t28 -28q27 0 27 28q0 11 -8 19.5t-19 8.5z M424 516q-8 -40 -30 -119q-6 -16 -11 -25l-5 -7q-5 -7 -12 -20q0 -6 -9 7q-5 8 -11 17 q-39 43 -78 155q3 -12 3 -33t-7 -83q-3 -17 -12 -75l-1 -5q-60 35 -117 115q11 -62 28 -125q7 -25 18 -28q92 53 244 53q150 0 243 -53q13 4 27 61l15 72l5 20q-58 -80 -118 -115l-3 17q-17 99 -17 137q0 21 3 42q-25 -73 -52 -120q-10 -19 -35 -46q-9 -9 -11 -13 q-6 10 -17 27q-4 8 -11.5 26.5t-20.5 77.5q-5 19 -8 40z" /></svg>