<?xml version="1.0" encoding="UTF-8" standalone="no"?>
<!DOCTYPE svg PUBLIC "-//W3C//DTD SVG 1.1//EN"
"http://www.w3.org/Graphics/SVG/1.1/DTD/svg11.dtd">
<svg xmlns="http://www.w3.org/2000/svg"
     xmlns:xlink="http://www.w3.org/1999/xlink"
     version="1.1" id="svgMain" viewBox="0 0 4096 4096" >
	 
	 
<g transform="rotate(180,1024,1024)">

     <path d="
	 

	 
	 M293 224Q293 205 321 205Q337 205 366 208T408 211L483 214Q494 215 502 215Q530 215 575 211Q629 208 648 207Q652 207 662 206T678 205Q706 205 706 225Q706 245 642 256Q604 263 539 265Q520 265
500 265Q363 265 311 243Q293 235 293 224ZM136 747Q123 747 114 738T105 716Q105 703 114 694T136 684Q166 684 166 716Q166 747 136 747ZM300 826Q268 826 268 795Q268 763 300 763Q330 763 330 795Q330 826 300 826ZM699 826Q687 826 678 817T669 795Q669 763
699 763Q730 763 730 795Q730 826 699 826ZM862 747Q832 747 832 716Q832 684 862 684Q893 684 893 716Q893 729 884 738T862 747ZM771 150Q771 114 643 101Q586 96 554 94L521 93Q507 93 499 93Q348 93 266 119Q228 131 228 150Q228 189 248 232Q261 258 261 271Q261
298 202 366Q168 406 168 413T160 447L144 510Q137 537 133 558Q126 599 123 639Q65 665 65 716Q65 745 86 765T136 786Q164 786 185 766T206 716Q206 711 203 696Q200 676 200 668Q200 614 280 531Q287 592 287 638Q287 694 276 719Q268 738 252 748Q229 762 229
797Q229 826 249 846T300 867Q328 867 349 847T370 797Q370 790 366 772T362 743Q362 670 430 529Q438 564 451 633Q457 679 457 710Q457 762 438 806Q430 823 430 831Q430 860 450 880T500 901Q528 901 548 881T568 831Q568 821 559 799Q548 772 546 765Q542 745
542 710Q542 655 556 585Q561 559 568 529Q635 672 635 743Q635 753 632 770T628 797Q628 827 648 847T699 867Q728 867 748 846T769 797Q769 762 746 747Q719 729 714 686Q711 666 711 637Q711 593 718 531Q798 614 798 668Q798 674 795 696Q792 712 792 716Q792
745 813 765T862 786Q891 786 912 766T933 716Q933 666 875 639Q872 601 864 557Q855 507 833 428Q831 420 831 413T811 384L796 366Q737 296 737 271Q737 260 749 233Q763 201 766 193Q771 175 771 150ZM500 864Q487 864 478 855T469 833Q469 821 478 812T500
802Q530 802 530 833Q530 846 521 855T500 864ZM725 377Q725 399 656 409Q597 417 500 417Q403 417 343 408Q274 397 274 376Q274 358 306 358Q323 358 353 360Q387 363 400 364L481 367Q493 367 502 367Q545 367 634 361Q650 361 682 359Q691 358 695 358Q725
358 725 377Z
	 
	 

	 " />

</g>	 
	 
	 
	 
</svg>