<?xml version="1.0" encoding="UTF-8" standalone="no"?>
<!DOCTYPE svg PUBLIC "-//W3C//DTD SVG 1.1//EN"
"http://www.w3.org/Graphics/SVG/1.1/DTD/svg11.dtd">
<svg xmlns="http://www.w3.org/2000/svg"
     xmlns:xlink="http://www.w3.org/1999/xlink"
     version="1.1" id="svgMain" viewBox="0 0 2048 2048" >
  <path transform="rotate(180, 1024, 1024)" d="M476 45q0 95 -40 150q-24 34 -76 65q-45 26 -45 48q0 7 5 12t17 12q44 25 44 69q0 51 -52 81q-14 9 -20.5 14t-6.5 14q0 20 13 35q10 15 10 32q0 19 -15.5 32.5t-35.5 13.5t-34.5 -13.5t-14.5 -32.5t10 -32q12 -16 12 -35q0 -8 -6 -14q-20 -11 -59 -46q-14 -16 -14 -49 q0 -44 45 -69q21 -13 21 -24q0 -22 -44 -48q-54 -33 -77 -66q-39 -56 -39 -149h402z M35 0q-2 22 -2 52q0 83 30 141q31 64 121 109q-30 10 -47 39t-17 62q0 75 78 108q-20 33 -20 64q0 38 29 62.5t69 24.5q38 0 67 -25t29 -62q0 -31 -20 -64q77 -32 77 -108q0 -32 -17 -61.5 t-46 -39.5q90 -46 122 -109q28 -58 28 -141q0 -30 -1 -52h-480z" /></svg>