<?xml version="1.0" encoding="UTF-8" standalone="no"?>
<!DOCTYPE svg PUBLIC "-//W3C//DTD SVG 1.1//EN"
"http://www.w3.org/Graphics/SVG/1.1/DTD/svg11.dtd">
<svg xmlns="http://www.w3.org/2000/svg"
     xmlns:xlink="http://www.w3.org/1999/xlink"
     version="1.1" id="svgMain" viewBox="0 0 2048 2048" >
  <path transform="rotate(180, 1024, 1024)" d="M114 266q16 0 16 -22q0 -28 -28 -28q2 0 -4 1h-4q-4 5 -4 17q0 32 24 32z M188 403q-8 7 -8 19q0 21 21.5 39t43.5 18q11 0 22 -6q3 -5 3 -9q0 -19 -26.5 -40.5t-48.5 -21.5q-1 1 -4 1h-1h-2z M204 614q4 -11 4 -21q0 -4 -2 -18v0q34 8 48 18q-16 10 -24 12.5t-25 8.5h-1z M71 228q4 -18 21 -31t36 -13v0h1h1q4 0 17 8.5t19 8.5q1 0 5.5 -0.5t4.5 -5.5q0 -2 -3 -10.5t-3 -11.5q0 -10 15 -11q7 4 18 24q19 34 46 62q41 42 105 70q1 9 8 34q14 44 36 73q10 13 18 13q3 0 7 -3t4 -12q0 -7 -10 -35q-6 -20 -13 -39q-5 -15 -5 -28q0 -3 1 -15 q0 -80 -66 -168q-44 -57 -50 -96h371q4 38 4 76q0 181 -89 306q-24 33 -56 64q-44 41 -71 41q-1 0 -2 -1h-2v0l-26 3q-7 0 -14 -2h-6q-3 -1 -5 -1t-6 1h-6q-8 3 -14 24q-3 15 -9 44q-3 9 -12 18q-14 -43 -83 -63q-37 -12 -52 -24q-11 -37 -73 -160q-26 -51 -35 -69 q-24 -52 -27 -71z M700 0h-471q3 50 21 89q14 31 50 76q27 35 37 52q16 29 19 60q-80 -35 -129 -116q-22 -36 -36 -36q-46 4 -50 32q-10 -6 -22 -6q-52 0 -86 67q6 42 42 118q8 17 26 55q31 63 40 83q22 47 32 86q2 15 2 28q0 6 -7 62h2h3h3h1q30 0 75 -17q41 -16 41 -21 q31 53 51 53q24 -13 39 -32q9 -15 23 -59q9 2 19 2q90 0 178 -115q102 -135 102 -366q0 -48 -5 -95z" /></svg>