<?xml version="1.0" encoding="UTF-8" standalone="no"?>
<!DOCTYPE svg PUBLIC "-//W3C//DTD SVG 1.1//EN"
"http://www.w3.org/Graphics/SVG/1.1/DTD/svg11.dtd">
<svg xmlns="http://www.w3.org/2000/svg"
     xmlns:xlink="http://www.w3.org/1999/xlink"
     version="1.1" id="svgMain" viewBox="0 0 2048 2048" >
  <path transform="rotate(180, 1024, 1024)" d="M397 331q-61 0 -99 4q-13 2 -23 3q7 -14 7 -28q0 -16 -7 -28q15 5 46 8q41 3 76 3q88 0 121 -11q-7 12 -7 28q0 14 8 28l-24 -3q-35 -4 -98 -4z M397 738q-14 0 -24.5 -9.5t-10.5 -23.5t10.5 -23.5t24.5 -9.5t24.5 9.5t10.5 23.5t-10.5 23.5t-24.5 9.5z M397 260 q-37 0 -110 -8q-22 -4 -22 -21q0 -14 60 -17q-13 1 72 1q132 0 132 16q0 21 -42 26q-8 1 -57 2q-9 0 -24 1h-9z M396 363q116 0 147 19q19 11 27 37q3 11 7 46q-5 56 -72 108q-63 49 -110 55q-43 -6 -107 -55q-67 -51 -72 -108q4 -33 8 -46q8 -25 27.5 -37.5t61.5 -15.5 q30 -3 83 -3z M376 418v51h-38v43h38v48h42v-48h37v-43h-37v-51h-42z M395 189q-7 0 -30 -17q-15 -11 -30 -21.5t-30 -12.5q-32 -12 -83 -16q-12 -1 -36 -2q-45 -2 -54 -4q-36 -8 -36 -31q5 -22 24 -22q6 0 25 3q28 6 35 6q62 0 119 15q77 21 98 61q22 -42 95 -60 q66 -16 121 -16q7 0 36 -6q19 -3 24 -3q20 0 24 22q0 23 -36 31q-11 2 -54 4q-25 1 -66 5q-26 3 -53 13q-21 2 -58 32q-24 19 -35 19z M397 91q-46 -45 -134 -53q-17 -2 -53 -6q-44 -4 -55 -6q-40 -8 -44 -26q-28 11 -55 57q-11 19 -23 34q38 72 93 72q11 0 33 -2t33 -2 q50 0 108 22q-79 8 -79 48q0 13 11 43t11 45q-67 72 -67 139q0 73 72 135q62 52 95 57q-24 29 -24 63q0 33 22 51t56 18q33 0 55.5 -18t22.5 -51q0 -34 -24 -63q32 -4 95 -58q72 -60 72 -134q0 -66 -68 -139q0 -15 11.5 -45.5t11.5 -42.5q0 -40 -80 -48q57 -22 108 -22 q11 0 33 2t33 2q55 0 93 -72q-16 -25 -33 -51q-20 -30 -45 -40q-4 19 -43 26q-6 1 -56 6l-54 6q-88 8 -132 53z" /></svg>