<?xml version="1.0" encoding="UTF-8" standalone="no"?>
<!DOCTYPE svg PUBLIC "-//W3C//DTD SVG 1.1//EN"
"http://www.w3.org/Graphics/SVG/1.1/DTD/svg11.dtd">
<svg xmlns="http://www.w3.org/2000/svg"
     xmlns:xlink="http://www.w3.org/1999/xlink"
     version="1.1" id="svgMain" viewBox="0 0 4096 4096" >
	 
	 
<g transform="rotate(180,1024,1024)">

     <path d="
	 
M201 382Q184 382 172 371T159 343Q159 337 163 330Q179 330 191 340T204 367Q204 372 201 382ZM814 189Q815 235 815 235Q815 439 711 569Q622 682 548 682Q543 682 536 680Q535 680 534 681Q532 681
531 681H529Q512 681 512 668Q512 662 520 655Q587 650 667 559Q769 440 769 219Q769 217 768 211Q768 205 768 202V192Q768 185 768 185Q769 172 776 164T793 156Q801 156 807 164T814 189ZM291 548H292H294Q296 548 297 547H298Q323 547 352 572T382 615Q382
620 378 625Q366 632 353 632Q329 632 305 613T281 569Q281 555 291 548ZM871 100L344 102Q346 161 366 200T422 283Q453 322 464 340Q482 371 486 407Q424 382 388 343Q371 324 362 310Q349 287 321 245Q313 236 303 235Q271 235 271 274Q258 258 242 258Q240
258 218 264Q179 274 161 289T125 342Q132 388 172 472Q193 518 228 589Q266 665 281 720Q283 737 283 753Q283 760 276 820H278H281Q283 820 284 821H286Q342 821 409 784Q416 780 416 779Q452 838 471 838Q502 822 516 802Q527 785 542 736Q551 739 563 739Q666
739 763 610Q876 461 876 205Q876 153 871 100Z

	 " />

</g>	 
	 
	 
	 
</svg>