<?xml version="1.0" encoding="UTF-8" standalone="no"?>
<!DOCTYPE svg PUBLIC "-//W3C//DTD SVG 1.1//EN" "http://www.w3.org/Graphics/SVG/1.1/DTD/svg11.dtd">
<!-- Создано Microsoft Visio, экспорт SVG 08._Канцлер.svg Страница-1 -->
<svg xmlns="http://www.w3.org/2000/svg" xmlns:xlink="http://www.w3.org/1999/xlink" xmlns:ev="http://www.w3.org/2001/xml-events"
		xmlns:v="http://schemas.microsoft.com/visio/2003/SVGExtensions/" width="0.278368in" height="0.278214in"
		viewBox="0 0 20.0425 20.0314" xml:space="preserve" color-interpolation-filters="sRGB" class="st2">
	<v:documentProperties v:langID="1049" v:metric="true" v:viewMarkup="false"/>

	<style type="text/css">
	<![CDATA[
		.st1 {fill:#000000;stroke:none;stroke-linecap:butt;stroke-width:0.1}
		.st2 {fill:none;fill-rule:evenodd;font-size:12px;overflow:visible;stroke-linecap:square;stroke-miterlimit:3}
	]]>
	</style>

	<g v:mID="0" v:index="1" v:groupContext="foregroundPage">
		<title>Страница-1</title>
		<v:pageProperties v:drawingScale="0.0393701" v:pageScale="0.0393701" v:drawingUnits="24" v:shadowOffsetX="9"
				v:shadowOffsetY="-9"/>
		<g id="group3-1" transform="translate(0.1,-0.1)" v:mID="3" v:groupContext="group">
			<title>Лист.3</title>
			<g id="shape4-2" v:mID="4" v:groupContext="shape" transform="translate(0,20.2204) scale(1,-1)">
				<title>Лист.4</title>
				<path d="M3.38 19.85 C3.71 18.6 4.7 17.46 6.3 16.47 C7.05 16.01 7.95 15.56 8.9 15.19 C9.05 15.13 9.17 15.07 9.15
							 15.07 C9.14 15.06 8.98 15.02 8.79 14.97 C8.02 14.78 7.46 14.58 6.77 14.26 C6.55 14.16 6.35 14.07 6.33
							 14.06 C6.31 14.06 6.18 14.08 6.04 14.11 C5.41 14.24 5.03 14.29 4.49 14.29 C3.98 14.29 3.65 14.25 3.2
							 14.13 C2.55 13.95 1.9 13.58 1.32 13.06 C1.23 12.98 1.17 12.91 1.17 12.91 C1.17 12.9 1.22 12.92 1.28
							 12.95 C1.44 13.03 1.88 13.2 2.11 13.28 C3.2 13.65 4.05 13.67 4.51 13.33 C4.6 13.27 4.69 13.17 4.68 13.16
							 C4.68 13.15 4.6 13.1 4.51 13.03 C3.86 12.55 3.41 12.14 3.02 11.65 L2.89 11.49 L2.61 11.4 C1.7 11.11
							 1.12 10.81 0.71 10.4 C0.55 10.25 0.34 9.97 0.24 9.78 C0.17 9.64 0 9.25 0 9.22 C0 9.21 0.06 9.29 0.14
							 9.39 C0.78 10.24 1.51 10.59 2.16 10.37 L2.22 10.35 L2.15 10.17 C1.94 9.59 1.83 9 1.83 8.36 L1.83 8.06
							 L1.72 7.97 C1.03 7.38 0.7 6.63 0.56 5.33 C0.54 5.18 0.53 5.05 0.53 5.05 C0.54 5.04 0.56 5.11 0.58 5.19
							 C0.84 6.07 1.22 6.7 1.61 6.9 C1.67 6.93 1.76 6.96 1.83 6.96 L1.95 6.97 L1.99 6.82 C2.11 6.25 2.3 5.67
							 2.53 5.2 C2.56 5.13 2.59 5.07 2.59 5.06 C2.59 5.05 2.54 4.99 2.47 4.91 C2.13 4.53 1.94 4.07 1.85 3.41
							 C1.82 3.15 1.81 2.5 1.83 2.09 C1.85 1.67 1.87 1.61 1.88 1.87 C1.9 2.26 1.98 2.71 2.08 3.04 C2.26 3.66
							 2.55 4.05 2.95 4.2 C3.09 4.25 3.09 4.25 3.12 4.21 C3.13 4.19 3.47 3.69 3.86 3.09 C4.26 2.5 4.61 1.95
							 4.65 1.88 C4.85 1.5 4.96 0.96 4.96 0.42 L4.96 0.19 L9.95 0.19 L14.94 0.19 L14.96 0.31 C14.99 0.49 14.99
							 0.98 14.97 1.18 C14.85 2.32 14.11 3.3 12.69 4.24 C12.13 4.61 11.66 4.87 10.57 5.41 C8.97 6.21 8.64 6.41
							 8.3 6.81 C7.84 7.33 7.54 8.15 7.58 8.77 C7.61 9.32 7.99 10.1 8.48 10.63 C8.74 10.91 9.18 11.23 9.51
							 11.37 L9.68 11.45 L9.9 11.25 C10.29 10.91 10.36 10.8 10.57 10.18 C10.79 9.5 10.93 9.18 11.14 8.82 C11.53
							 8.18 12.24 7.58 13.36 6.94 C13.79 6.69 13.97 6.65 14.42 6.66 C14.72 6.67 15.34 6.76 15.29 6.78 C15.27
							 6.79 15.07 6.83 14.84 6.86 C14.61 6.9 14.41 6.94 14.39 6.94 C14.37 6.95 14.38 6.96 14.44 6.98 C14.56
							 7.02 14.68 7.1 14.79 7.21 C14.9 7.31 15.02 7.49 14.96 7.46 C14.8 7.37 14.66 7.34 14.45 7.33 C14.13 7.31
							 13.87 7.37 13.53 7.53 L13.38 7.6 L13.47 7.63 C13.67 7.68 13.9 7.76 14.12 7.86 L14.34 7.95 L14.02 7.97
							 C13.51 7.99 13.17 8.08 13 8.23 C12.88 8.33 12.7 8.58 12.63 8.73 C12.59 8.8 12.57 8.87 12.57 8.87 C12.58
							 8.88 12.61 8.87 12.65 8.84 C12.75 8.8 13.04 8.78 13.22 8.81 C13.57 8.87 13.66 8.89 13.62 8.9 C13.6 8.91
							 13.53 8.93 13.46 8.95 C13.04 9.07 12.44 9.39 12.2 9.63 C12.1 9.73 11.9 10.06 11.72 10.42 C11.53 10.82
							 11.37 11.29 11.33 11.59 L11.32 11.67 L11.7 11.32 C11.91 11.12 12.34 10.7 12.66 10.4 C13.83 9.27 14.08
							 9.04 14.44 8.76 C14.96 8.37 15.5 8.06 16.05 7.85 C16.37 7.72 16.67 7.65 17.11 7.57 C17.7 7.47 17.9 7.4
							 18.14 7.23 C18.27 7.14 18.45 6.98 18.61 6.81 C18.65 6.76 18.69 6.72 18.69 6.73 C18.69 6.76 18.61 6.95
							 18.55 7.07 C18.45 7.24 18.3 7.41 18.13 7.52 C17.94 7.64 17.81 7.7 17.47 7.79 L17.18 7.87 L17.41 7.88
							 C17.97 7.89 18.56 7.75 19.01 7.48 C19.13 7.41 19.13 7.41 19.07 7.49 C18.84 7.74 18.53 7.96 18.24 8.05
							 C18 8.12 17.9 8.13 17.26 8.15 C16.59 8.17 16.5 8.18 16.14 8.29 C15.62 8.44 15.08 8.73 14.66 9.08 C14.35
							 9.34 13.36 10.35 12.9 10.87 C12.69 11.11 11.99 12.03 11.99 12.07 C11.99 12.09 12.47 11.92 12.67 11.83
							 C13.27 11.55 13.71 11.15 13.95 10.67 C13.99 10.59 14.03 10.49 14.04 10.46 C14.05 10.42 14.07 10.39 14.07
							 10.39 C14.09 10.39 14.11 10.65 14.1 10.85 C14.08 11.14 14.02 11.39 13.88 11.65 L13.81 11.79 L13.89 11.79
							 C14.09 11.81 14.44 11.58 14.81 11.19 C15.01 10.98 15.41 10.45 15.61 10.13 L15.77 9.89 L15.78 9.97 C15.8
							 10.11 15.79 10.52 15.77 10.72 C15.76 10.83 15.73 10.98 15.71 11.07 C15.69 11.15 15.67 11.23 15.67 11.24
							 C15.67 11.26 15.69 11.26 15.92 11.2 C16.46 11.06 16.87 10.7 17.22 10.07 C17.35 9.85 17.34 9.85 17.42
							 10.04 C17.56 10.36 17.54 10.67 17.36 10.97 L17.3 11.07 L17.36 11.06 C17.48 11.03 17.68 10.94 17.82 10.86
							 C18.13 10.66 18.32 10.4 18.63 9.72 C18.69 9.59 18.75 9.48 18.75 9.48 C18.75 9.48 18.79 9.61 18.83 9.77
							 C18.87 9.93 18.92 10.13 18.95 10.21 C19 10.37 19.01 10.37 19.14 10.3 C19.34 10.18 19.47 9.82 19.5 9.35
							 L19.51 9.18 L19.57 9.3 C19.74 9.69 19.84 10.13 19.84 10.45 C19.84 10.82 19.73 11.12 19.46 11.48 C19.27
							 11.73 19.09 11.89 18.76 12.11 C18.44 12.32 18.31 12.38 17.68 12.63 C16.47 13.1 16 13.34 15.88 13.55
							 C15.85 13.6 15.85 13.6 15.88 13.67 C15.99 13.92 16 14.02 15.94 14.19 C15.89 14.34 15.74 14.52 15.47
							 14.75 C15.15 15.02 15.1 15.07 14.5 15.7 C13.72 16.5 13.4 16.8 12.99 17.11 C12.1 17.78 11.29 18.11 10.2
							 18.28 C9.76 18.34 9.06 18.38 8.8 18.36 L8.62 18.34 L8.84 18.31 C10.51 18.04 11.96 17.35 12.25 16.69
							 C12.36 16.44 12.33 16.23 12.15 16.01 C11.71 15.46 10.74 15.48 8.93 16.08 C6.27 16.97 4.42 18.23 3.49
							 19.79 C3.42 19.9 3.36 20.01 3.35 20.02 C3.34 20.03 3.36 19.96 3.38 19.85 ZM13.53 14.74 C13.79 14.67
							 14.06 14.51 14.21 14.34 C14.27 14.26 14.55 13.8 14.55 13.76 C14.55 13.76 14.52 13.78 14.48 13.8 C14.35
							 13.88 14.23 13.91 13.96 13.92 C13.6 13.94 13.6 13.94 13.13 14.36 C12.91 14.55 12.72 14.68 12.61 14.71
							 C12.53 14.74 12.56 14.76 12.69 14.77 C12.75 14.78 12.81 14.79 12.82 14.8 C12.83 14.8 12.96 14.8 13.11
							 14.79 C13.3 14.79 13.43 14.77 13.53 14.74 ZM18.35 11.94 C18.46 11.91 18.64 11.8 18.73 11.69 C18.83 11.58
							 18.91 11.37 18.84 11.42 C18.82 11.43 18.75 11.45 18.68 11.47 C18.51 11.5 18.42 11.55 18.25 11.7 C18.17
							 11.77 18.09 11.85 18.05 11.88 L17.99 11.93 L18.04 11.95 C18.13 11.97 18.25 11.97 18.35 11.94 Z"
						class="st1"/>
			</g>
		</g>
	</g>
</svg>
