<?xml version="1.0" encoding="UTF-8" standalone="no"?>
<!DOCTYPE svg PUBLIC "-//W3C//DTD SVG 1.1//EN" "http://www.w3.org/Graphics/SVG/1.1/DTD/svg11.dtd">
<!-- Создано Microsoft Visio, экспорт SVG 09._Архиепископ.svg архиепископ -->
<svg xmlns="http://www.w3.org/2000/svg" xmlns:xlink="http://www.w3.org/1999/xlink" xmlns:ev="http://www.w3.org/2001/xml-events"
		xmlns:v="http://schemas.microsoft.com/visio/2003/SVGExtensions/" width="0.19685in" height="0.275591in"
		viewBox="0 0 14.1732 19.8425" xml:space="preserve" color-interpolation-filters="sRGB" class="st2">
	<v:documentProperties v:langID="1049" v:metric="true" v:viewMarkup="false">
		<v:userDefs>
			<v:ud v:nameU="msvSubprocessMaster" v:prompt="" v:val="VT4(Rectangle)"/>
			<v:ud v:nameU="msvNoAutoConnect" v:val="VT0(1):26"/>
		</v:userDefs>
	</v:documentProperties>

	<style type="text/css">
	<![CDATA[
		.st1 {fill:#000000;stroke:none;stroke-linecap:butt;stroke-width:0.1}
		.st2 {fill:none;fill-rule:evenodd;font-size:12px;overflow:visible;stroke-linecap:square;stroke-miterlimit:3}
	]]>
	</style>

	<g v:mID="4" v:index="2" v:groupContext="foregroundPage">
		<v:userDefs>
			<v:ud v:nameU="msvThemeOrder" v:val="VT0(0):26"/>
		</v:userDefs>
		<title>архиепископ</title>
		<v:pageProperties v:drawingScale="0.0393701" v:pageScale="0.0393701" v:drawingUnits="24" v:shadowOffsetX="9"
				v:shadowOffsetY="-9"/>
		<g id="group111-1" transform="translate(0,0.0369794)" v:mID="111" v:groupContext="group">
			<title>Лист.111</title>
			<g id="shape112-2" v:mID="112" v:groupContext="shape" transform="translate(0,19.8425) scale(1,-1)">
				<title>Лист.112</title>
				<path d="M10.89 19.78 C10.85 19.75 10.77 19.62 10.69 19.48 C10.56 19.24 10.46 19.12 10.35 19.07 C10.31 19.05 10.25
							 19.05 10.13 19.05 C9.99 19.05 9.94 19.05 9.81 19.09 C9.73 19.11 9.6 19.14 9.54 19.14 L9.41 19.15 L9.4
							 19.06 C9.37 18.9 9.3 18.67 9.23 18.53 C9.1 18.29 8.91 18.18 8.47 18.05 C8.26 17.99 8.22 17.97 8.2 17.93
							 C8.14 17.86 8.16 17.78 8.3 17.53 C8.54 17.1 8.57 16.89 8.44 16.77 C8.42 16.75 8.31 16.68 8.19 16.61
							 C7.13 15.98 6.42 15.32 5.98 14.54 C5.67 13.99 5.54 13.52 5.54 12.93 C5.54 12.61 5.57 12.38 5.65 12.07
							 C5.76 11.62 5.76 11.44 5.64 11.34 C5.56 11.27 5.5 11.25 5.26 11.23 C4.87 11.2 4.7 11.29 4.65 11.54 C4.63
							 11.67 4.65 11.84 4.75 12.23 C4.85 12.57 4.87 12.73 4.83 12.71 C4.82 12.71 4.74 12.68 4.66 12.65 C4.35
							 12.54 3.98 12.5 3.73 12.55 C3.39 12.62 3.05 12.85 2.76 13.22 C2.69 13.29 2.64 13.35 2.63 13.35 C2.61
							 13.35 2.6 13.22 2.61 13.16 C2.62 13.12 2.65 12.97 2.68 12.82 C2.75 12.5 2.77 12.31 2.72 12.19 C2.66
							 12.04 2.49 11.89 2.31 11.84 C2.17 11.81 1.92 11.81 1.64 11.86 C1.5 11.88 1.33 11.91 1.26 11.91 L1.14
							 11.92 L1.16 11.88 C1.19 11.77 1.3 11.65 1.53 11.49 C1.84 11.26 1.91 11.19 1.91 11.06 C1.91 10.93 1.79
							 10.78 1.63 10.71 C1.5 10.66 1.41 10.64 1.1 10.65 C0.8 10.65 0.61 10.64 0.52 10.6 L0.47 10.59 L0.57 10.5
							 C0.62 10.45 0.76 10.35 0.87 10.27 C1.25 10.02 1.29 9.98 1.29 9.82 C1.29 9.66 1.21 9.54 0.92 9.29 C0.8
							 9.17 0.69 9.08 0.69 9.08 C0.72 9.06 1.01 9.02 1.33 9 C2.01 8.96 2.19 8.92 2.28 8.79 C2.32 8.73 2.33
							 8.7 2.29 8.61 C2.25 8.52 2.16 8.4 1.98 8.23 C1.32 7.61 0.84 6.95 0.5 6.21 C0.26 5.7 0.11 5.17 0.03 4.58
							 C0 4.36 0 3.68 0.03 3.46 C0.17 2.43 0.58 1.59 1.28 0.88 C1.52 0.64 2.09 0.34 2.55 0.21 C3.27 0 3.99
							 0.02 4.71 0.28 C5.17 0.44 5.59 0.68 6 1.03 C6.68 1.61 7.1 2.24 7.27 2.95 C7.3 3.06 7.3 3.15 7.3 3.39
							 C7.3 3.65 7.3 3.71 7.26 3.82 C7.21 3.99 7.07 4.24 6.95 4.36 C6.47 4.87 5.61 5.01 4.88 4.7 C4.51 4.55
							 4.25 4.31 4.06 3.97 C3.89 3.66 4.07 3.65 4.55 3.94 C4.91 4.16 5.12 4.23 5.4 4.23 C5.56 4.23 5.6 4.22
							 5.69 4.19 C6.12 4.01 6.26 3.5 6.03 2.88 C5.84 2.37 5.27 1.8 4.77 1.6 C4.54 1.51 4.38 1.48 4.13 1.48
							 C3.87 1.48 3.76 1.5 3.55 1.59 C3.17 1.74 2.86 2.07 2.7 2.5 C2.57 2.82 2.54 3.45 2.61 3.96 C2.73 4.76
							 3.1 5.42 3.74 5.96 C4.22 6.37 4.8 6.66 5.51 6.83 C5.96 6.94 6.3 6.98 6.95 7 C7.7 7.03 8.1 7.07 8.6 7.2
							 C9.85 7.51 10.73 8.31 11.11 9.45 C11.46 10.49 11.28 11.51 10.55 12.63 C10.29 13.04 10.23 13.13 10.12
							 13.32 C9.78 13.95 9.7 14.33 9.84 14.59 C9.89 14.68 10.04 14.82 10.35 15.06 C10.53 15.2 10.66 15.28 10.67
							 15.27 C10.67 15.26 10.66 15.22 10.64 15.17 C10.57 14.97 10.52 14.59 10.55 14.41 C10.61 14.08 10.86 13.86
							 11.66 13.43 C12.47 12.99 12.58 12.9 12.76 12.55 C12.9 12.28 13.04 12.13 13.24 12.05 C13.38 11.99 13.59
							 11.98 13.74 12.02 C13.99 12.09 14.15 12.24 14.16 12.43 C14.17 12.54 14.15 12.63 14 12.99 C13.8 13.48
							 13.65 13.97 13.58 14.35 C13.51 14.72 13.49 14.9 13.5 15.31 C13.51 15.76 13.54 15.94 13.67 16.4 C13.79
							 16.8 13.8 16.93 13.79 17.22 C13.77 17.72 13.58 18.07 13.25 18.22 C13 18.33 13.01 18.45 13.29 18.68 C13.41
							 18.78 13.43 18.82 13.39 18.85 C13.37 18.86 13.2 18.86 13 18.87 C12.68 18.88 12.63 18.88 12.58 18.91
							 C12.47 18.96 12.48 19.04 12.62 19.23 L12.72 19.37 L12.67 19.41 C12.6 19.47 12.46 19.45 12.07 19.33 C11.44
							 19.13 11.33 19.15 11.18 19.52 C11.16 19.58 11.12 19.66 11.1 19.7 C11.07 19.76 10.98 19.84 10.96 19.84
							 C10.95 19.84 10.92 19.82 10.89 19.78 Z" class="st1"/>
			</g>
		</g>
	</g>
</svg>
