<?xml version="1.0" encoding="UTF-8" standalone="no"?>
<!DOCTYPE svg PUBLIC "-//W3C//DTD SVG 1.1//EN" "http://www.w3.org/Graphics/SVG/1.1/DTD/svg11.dtd">
<!-- Создано Microsoft Visio, экспорт SVG 11._Сверчок.svg шашка -->
<svg xmlns="http://www.w3.org/2000/svg" xmlns:xlink="http://www.w3.org/1999/xlink" xmlns:ev="http://www.w3.org/2001/xml-events"
		xmlns:v="http://schemas.microsoft.com/visio/2003/SVGExtensions/" width="0.275591in" height="0.216535in"
		viewBox="0 0 19.8425 15.5906" xml:space="preserve" color-interpolation-filters="sRGB" class="st2">
	<v:documentProperties v:langID="1049" v:metric="true" v:viewMarkup="false">
		<v:userDefs>
			<v:ud v:nameU="msvSubprocessMaster" v:prompt="" v:val="VT4(Rectangle)"/>
			<v:ud v:nameU="msvNoAutoConnect" v:val="VT0(1):26"/>
		</v:userDefs>
	</v:documentProperties>

	<style type="text/css">
	<![CDATA[
		.st1 {fill:#000000;stroke:none;stroke-linecap:butt;stroke-width:0.1}
		.st2 {fill:none;fill-rule:evenodd;font-size:12px;overflow:visible;stroke-linecap:square;stroke-miterlimit:3}
	]]>
	</style>

	<g v:mID="8" v:index="4" v:groupContext="foregroundPage">
		<v:userDefs>
			<v:ud v:nameU="msvThemeOrder" v:val="VT0(0):26"/>
		</v:userDefs>
		<title>сверчок</title>
		<v:pageProperties v:drawingScale="0.0393701" v:pageScale="0.0393701" v:drawingUnits="24" v:shadowOffsetX="9"
				v:shadowOffsetY="-9"/>
		<g id="group3-1" transform="translate(-1.5633E-07,8.55177E-06)" v:mID="3" v:groupContext="group">
			<title>Лист.3</title>
			<g id="shape4-2" v:mID="4" v:groupContext="shape" transform="translate(0,15.5906) scale(1,-1)">
				<title>Лист.4</title>
				<path d="M3.18 15.53 C3.06 15.47 2.97 15.35 2.97 15.24 C2.97 15.09 3.13 14.93 3.29 14.93 C3.39 14.93 3.51 15 3.56
							 15.08 L3.61 15.16 L3.71 15.16 C3.85 15.16 4.23 15.12 4.49 15.08 C5.64 14.92 6.61 14.49 7.35 13.81 C8.27
							 12.97 8.85 11.8 9.12 10.26 C9.14 10.1 9.19 9.66 9.18 9.66 C9.18 9.65 9.11 9.64 9.04 9.62 C8.96 9.61
							 8.82 9.57 8.73 9.55 C8.58 9.5 8.56 9.5 8.49 9.52 C8.26 9.57 7.95 9.58 7.72 9.53 C7.62 9.51 7.61 9.51
							 7.58 9.53 C7.48 9.61 6.38 10.58 5.84 11.06 C5.12 11.7 5.02 11.79 4.5 12.27 C4.07 12.67 4.02 12.7 3.83
							 12.73 C3.69 12.76 3.47 12.74 3.34 12.7 C3.18 12.66 3.05 12.57 2.88 12.41 C2.56 12.1 2.36 11.72 2.25
							 11.17 C2.11 10.45 1.95 9.68 1.81 9.05 C1.53 7.8 1.35 6.95 1.25 6.53 C1.2 6.3 1.09 5.83 1.01 5.49 C0.94
							 5.16 0.85 4.78 0.83 4.66 L0.78 4.45 L0.67 4.39 C0.51 4.3 0.28 4.08 0.19 3.92 C0.1 3.77 0.04 3.6 0.02
							 3.43 C0 3.28 0.01 3.23 0.07 3.2 C0.09 3.2 0.58 3.19 1.39 3.19 C2.64 3.2 2.68 3.2 2.7 3.23 C2.71 3.24
							 2.72 3.29 2.72 3.32 C2.72 3.41 2.67 3.64 2.63 3.74 C2.54 3.97 2.33 4.22 2.11 4.35 C2 4.43 1.99 4.43
							 2 4.48 C2 4.5 2.06 4.85 2.12 5.25 C2.42 7.08 2.59 8.06 2.86 9.43 C2.94 9.8 3.02 10.22 3.04 10.37 C3.15
							 10.97 3.27 11.28 3.45 11.43 C3.53 11.5 3.6 11.53 3.7 11.53 C3.92 11.53 4.16 11.38 4.51 11.04 C4.9 10.67
							 5.58 9.93 6.3 9.11 L6.61 8.76 L6.56 8.67 C6.53 8.63 6.51 8.59 6.5 8.59 C6.5 8.59 6.45 8.63 6.38 8.68
							 C5.95 9.05 5.68 9.28 5.41 9.52 C5.24 9.67 5.04 9.83 4.98 9.88 C4.67 10.12 4.36 10.23 4.12 10.19 C3.66
							 10.11 3.37 9.63 3.28 8.79 C3.26 8.64 3.27 8.8 3.04 5.56 C2.94 4.09 2.86 2.88 2.85 2.88 C2.85 2.87 2.82
							 2.86 2.78 2.85 C2.58 2.79 2.29 2.57 2.15 2.37 C2.01 2.18 1.91 1.89 1.91 1.68 C1.91 1.54 1.79 1.56 3.27
							 1.56 C4.78 1.56 4.64 1.54 4.62 1.73 C4.58 2.09 4.4 2.43 4.12 2.64 C4.06 2.69 4 2.73 3.99 2.73 C3.98
							 2.74 3.98 3.65 3.97 5.35 C3.97 7.72 3.97 7.97 4 8.16 C4.06 8.68 4.15 8.99 4.28 9.13 C4.41 9.28 4.59
							 9.25 4.91 9.04 C5.06 8.93 5.48 8.54 5.62 8.36 C5.77 8.19 5.97 7.89 6.07 7.7 L6.16 7.54 L6.12 7.45 C6.09
							 7.4 6.07 7.36 6.07 7.36 C6.07 7.35 5.99 7.43 5.89 7.53 C5.59 7.8 5.33 7.96 5.09 8.02 C4.73 8.09 4.47
							 7.92 4.37 7.55 C4.33 7.41 4.33 7.08 4.37 6.89 C4.4 6.74 4.86 4.41 4.93 4.05 C4.99 3.79 5.47 1.37 5.48
							 1.29 C5.49 1.24 5.49 1.24 5.39 1.17 C5.11 1 4.9 0.71 4.82 0.41 C4.78 0.23 4.77 0.09 4.8 0.05 L4.83 0.01
							 L6.12 0.01 C7.6 0.01 7.49 0 7.49 0.13 C7.49 0.24 7.45 0.43 7.4 0.56 C7.31 0.78 7.11 1.03 6.91 1.15 C6.82
							 1.21 6.66 1.29 6.55 1.32 L6.48 1.35 L6.28 2.14 C5.99 3.29 5.79 4.1 5.65 4.63 C5.41 5.59 5.36 5.83 5.32
							 6.19 C5.29 6.45 5.32 6.68 5.39 6.71 C5.43 6.72 5.49 6.68 5.59 6.58 C5.75 6.42 5.75 6.43 5.72 6.23 C5.58
							 5.3 5.77 4.35 6.27 3.56 C7.24 2.01 9.12 1.26 10.94 1.69 C12.48 2.06 13.7 3.24 14.05 4.72 C14.17 5.2
							 14.2 5.75 14.13 6.23 C14.1 6.43 14.09 6.42 14.25 6.58 C14.35 6.68 14.42 6.72 14.45 6.71 C14.52 6.68
							 14.55 6.45 14.52 6.19 C14.49 5.83 14.43 5.59 14.19 4.63 C14.05 4.1 13.85 3.29 13.56 2.14 L13.37 1.35
							 L13.29 1.32 C12.82 1.18 12.47 0.79 12.38 0.32 C12.36 0.26 12.35 0.17 12.35 0.13 C12.35 0 12.24 0.01
							 13.7 0.01 C14.88 0.01 15 0.01 15.03 0.04 C15.07 0.06 15.07 0.07 15.06 0.18 C15.05 0.32 15 0.49 14.95
							 0.61 C14.85 0.82 14.66 1.04 14.45 1.17 C14.35 1.24 14.35 1.24 14.36 1.29 C14.37 1.37 14.86 3.79 14.91
							 4.05 C14.98 4.41 15.45 6.74 15.48 6.89 C15.51 7.08 15.51 7.41 15.48 7.55 C15.37 7.92 15.11 8.09 14.75
							 8.02 C14.51 7.96 14.25 7.8 13.96 7.53 C13.86 7.43 13.77 7.35 13.77 7.36 C13.77 7.36 13.75 7.4 13.72
							 7.45 L13.68 7.54 L13.77 7.7 C13.87 7.89 14.07 8.18 14.22 8.36 C14.36 8.54 14.78 8.93 14.93 9.04 C15.18
							 9.2 15.36 9.26 15.48 9.21 C15.65 9.12 15.77 8.8 15.85 8.16 C15.87 7.97 15.87 7.72 15.87 5.35 C15.87
							 3.65 15.86 2.74 15.85 2.73 C15.84 2.73 15.78 2.69 15.72 2.64 C15.45 2.43 15.27 2.12 15.23 1.77 C15.22
							 1.65 15.22 1.63 15.24 1.59 L15.26 1.56 L16.56 1.56 C18.04 1.56 17.93 1.55 17.93 1.68 C17.93 1.89 17.83
							 2.18 17.69 2.37 C17.55 2.57 17.27 2.79 17.06 2.85 C17.03 2.86 17 2.87 16.99 2.88 C16.99 2.88 16.9 4.09
							 16.8 5.56 C16.57 8.8 16.58 8.64 16.57 8.79 C16.47 9.63 16.18 10.11 15.72 10.19 C15.48 10.23 15.17 10.12
							 14.86 9.88 C14.8 9.83 14.61 9.67 14.44 9.52 C13.92 9.07 13.35 8.59 13.34 8.59 C13.33 8.59 13.31 8.63
							 13.28 8.67 L13.24 8.76 L13.54 9.11 C14.26 9.93 14.95 10.67 15.33 11.04 C15.68 11.38 15.93 11.53 16.14
							 11.53 C16.24 11.53 16.31 11.5 16.39 11.43 C16.57 11.28 16.69 10.97 16.8 10.37 C16.82 10.22 16.91 9.8
							 16.98 9.43 C17.25 8.06 17.42 7.08 17.72 5.25 C17.78 4.85 17.84 4.5 17.84 4.48 C17.85 4.43 17.85 4.43
							 17.73 4.35 C17.51 4.22 17.31 3.97 17.21 3.74 C17.17 3.63 17.12 3.41 17.12 3.32 C17.12 3.27 17.13 3.24
							 17.15 3.22 C17.18 3.19 17.21 3.19 18.46 3.19 C19.24 3.19 19.75 3.2 19.78 3.21 C19.83 3.23 19.84 3.28
							 19.82 3.43 C19.8 3.6 19.74 3.77 19.65 3.92 C19.56 4.08 19.33 4.3 19.18 4.39 L19.07 4.45 L19.02 4.66
							 C18.99 4.78 18.9 5.16 18.83 5.49 C18.75 5.83 18.65 6.3 18.59 6.53 C18.5 6.95 18.31 7.8 18.04 9.05 C17.9
							 9.68 17.73 10.45 17.59 11.17 C17.48 11.72 17.29 12.1 16.96 12.41 C16.79 12.57 16.66 12.66 16.5 12.7
							 C16.38 12.74 16.15 12.76 16.02 12.73 C15.82 12.7 15.77 12.67 15.34 12.27 C14.82 11.79 14.72 11.7 14
							 11.06 C13.46 10.58 12.36 9.61 12.26 9.53 C12.23 9.51 12.23 9.51 12.12 9.53 C11.89 9.58 11.59 9.57 11.36
							 9.52 C11.28 9.5 11.27 9.5 11.11 9.55 C11.01 9.58 10.88 9.61 10.8 9.62 C10.7 9.64 10.66 9.65 10.66 9.67
							 C10.66 9.69 10.68 9.8 10.7 9.92 C10.98 11.94 11.83 13.4 13.22 14.24 C13.57 14.45 14.12 14.69 14.53 14.8
							 C15.05 14.94 15.44 15 16.12 15.04 L16.24 15.05 L16.26 15.01 C16.31 14.88 16.48 14.8 16.62 14.83 C16.77
							 14.86 16.9 15.04 16.87 15.17 C16.83 15.37 16.62 15.49 16.43 15.42 C16.36 15.39 16.26 15.3 16.25 15.24
							 C16.24 15.21 16.23 15.2 15.96 15.19 C13.76 15.05 12.18 14.1 11.28 12.37 C10.88 11.62 10.63 10.77 10.51
							 9.78 C10.51 9.71 10.49 9.68 10.48 9.68 C10.47 9.68 10.34 9.69 10.19 9.7 C9.99 9.72 9.86 9.72 9.66 9.7
							 C9.52 9.69 9.39 9.68 9.38 9.68 C9.36 9.67 9.35 9.7 9.33 9.84 C9.16 11.47 8.56 12.85 7.63 13.76 C7.21
							 14.18 6.77 14.48 6.24 14.73 C5.51 15.07 4.79 15.24 3.74 15.31 L3.61 15.32 L3.57 15.39 C3.5 15.52 3.31
							 15.59 3.18 15.53 ZM5.79 6.62 C5.78 6.62 5.74 6.65 5.7 6.7 L5.63 6.78 L5.71 6.7 C5.76 6.66 5.79 6.62
							 5.79 6.62 ZM14.14 6.69 C14.1 6.65 14.06 6.62 14.06 6.62 C14.05 6.62 14.2 6.77 14.21 6.77 C14.21 6.77
							 14.18 6.74 14.14 6.69 Z" class="st1"/>
			</g>
		</g>
	</g>
</svg>
