<?xml version="1.0" encoding="UTF-8" standalone="no"?>
<!DOCTYPE svg PUBLIC "-//W3C//DTD SVG 1.1//EN" "http://www.w3.org/Graphics/SVG/1.1/DTD/svg11.dtd">
<!-- Создано Microsoft Visio, экспорт SVG 12._Шут.svg шут -->
<svg xmlns="http://www.w3.org/2000/svg" xmlns:xlink="http://www.w3.org/1999/xlink" xmlns:ev="http://www.w3.org/2001/xml-events"
		xmlns:v="http://schemas.microsoft.com/visio/2003/SVGExtensions/" width="0.275591in" height="0.275591in"
		viewBox="0 0 19.8425 19.8425" xml:space="preserve" color-interpolation-filters="sRGB" class="st2">
	<v:documentProperties v:langID="1049" v:metric="true" v:viewMarkup="false">
		<v:userDefs>
			<v:ud v:nameU="msvSubprocessMaster" v:prompt="" v:val="VT4(Rectangle)"/>
			<v:ud v:nameU="msvNoAutoConnect" v:val="VT0(1):26"/>
		</v:userDefs>
	</v:documentProperties>

	<style type="text/css">
	<![CDATA[
		.st1 {fill:#000000;stroke:none;stroke-linecap:butt;stroke-width:0.75}
		.st2 {fill:none;fill-rule:evenodd;font-size:12px;overflow:visible;stroke-linecap:square;stroke-miterlimit:3}
	]]>
	</style>

	<g v:mID="12" v:index="5" v:groupContext="foregroundPage">
		<v:userDefs>
			<v:ud v:nameU="msvThemeOrder" v:val="VT0(0):26"/>
		</v:userDefs>
		<title>шут</title>
		<v:pageProperties v:drawingScale="0.0393701" v:pageScale="0.0393701" v:drawingUnits="24" v:shadowOffsetX="9"
				v:shadowOffsetY="-9"/>
		<g id="shape143-1" v:mID="143" v:groupContext="shape" transform="translate(0,8.55177E-06)">
			<title>Лист.143</title>
			<path d="M14.73 19.72 L14.9 19.54 C14.51 19.45 14.12 19.37 13.99 19.36 C13.92 19.35 13.86 19.33 13.85 19.32 C13.85 19.31
						 13.86 19.26 13.89 19.19 C13.95 19.01 13.98 18.74 13.95 18.55 C13.92 18.32 13.87 18.16 13.75 17.92 C13.63
						 17.67 13.63 17.7 13.83 17.46 L13.94 17.32 L14.07 17.48 C14.14 17.57 14.36 17.9 14.57 18.22 C14.77 18.54
						 14.98 18.84 15.02 18.9 C15.1 19 15.17 19.03 15.15 18.95 C15.12 18.85 15.07 18.59 15.07 18.54 C15.07 18.48
						 15.11 18.52 15.2 18.67 C15.36 18.93 15.34 18.75 15.15 18.12 C14.93 17.41 14.63 16.64 14.4 16.19 C14.21 15.83
						 14.21 15.82 14.06 15.49 C13.98 15.32 13.89 15.13 13.85 15.06 C13.81 14.99 13.78 14.93 13.78 14.91 C13.78
						 14.9 13.82 14.89 13.87 14.9 C13.92 14.91 14.1 14.92 14.27 14.93 C14.64 14.94 14.88 14.97 15.01 15.02 C15.2
						 15.09 15.31 15.28 15.38 15.6 C15.39 15.67 15.41 15.73 15.42 15.73 C15.45 15.73 15.49 15.58 15.49 15.49 C15.49
						 15.39 15.51 15.31 15.54 15.31 C15.55 15.31 15.6 15.35 15.64 15.4 C15.69 15.44 15.73 15.47 15.75 15.47 C15.82
						 15.42 15.73 15.07 15.59 14.84 C15.54 14.76 15.46 14.59 15.41 14.48 C15.22 14.02 15.07 13.84 14.49 13.37
						 C14.29 13.2 14.07 13.01 14.01 12.95 L13.91 12.83 L13.91 12.36 L14.08 12.36 C14.36 12.34 14.64 12.36 14.75
						 12.39 C14.88 12.44 15.01 12.57 15.27 12.94 C15.49 13.26 15.64 13.45 15.79 13.58 C15.9 13.68 15.95 13.69
						 15.95 13.62 C15.95 13.54 15.97 13.53 16.02 13.57 C16.08 13.61 16.1 13.59 16.1 13.47 C16.1 13.23 15.98 12.7
						 15.86 12.36 C15.77 12.13 15.34 11.25 15.21 11.04 C15.07 10.81 14.76 10.47 14.53 10.29 C14.33 10.15 13.76
						 9.82 13.69 9.82 C13.66 9.82 13.65 9.81 13.65 9.78 C13.65 9.71 13.72 9.52 13.78 9.41 C13.84 9.32 13.84 9.32
						 13.8 9.3 C13.75 9.28 13.75 9.24 13.79 9.02 C13.83 8.81 13.9 8.65 14.03 8.45 L14.15 8.28 L13.98 8.22 L14.07
						 7.91 C14.45 6.71 15.14 5.5 16.19 4.25 C16.33 4.08 16.36 4.05 16.36 4.11 C16.36 4.15 16.67 4.81 16.83 5.12
						 C17.19 5.8 17.75 6.62 18.25 7.22 C18.31 7.29 18.36 7.35 18.36 7.36 C18.36 7.37 18.31 7.4 18.25 7.43 C18.2
						 7.46 18.09 7.55 18.01 7.63 C17.61 8.03 17.6 8.67 17.98 9.07 C18.54 9.67 19.55 9.42 19.8 8.61 C19.87 8.37
						 19.85 8.11 19.74 7.85 C19.67 7.69 19.47 7.49 19.31 7.4 C19.18 7.33 18.96 7.27 18.85 7.27 L18.78 7.27 L18.71
						 6.89 C18.47 5.59 18.44 4.66 18.57 2.21 C18.59 1.79 18.6 1.45 18.59 1.44 C18.57 1.42 18.37 1.37 17.49 1.18
						 C16.29 0.92 15.88 0.86 15.07 0.82 L14.56 0.79 L14.46 0.9 C13.78 1.72 12.99 3 12.2 4.54 L12.05 4.85 L11.96
						 4.8 C11.86 4.75 11.72 4.71 11.62 4.71 C11.5 4.71 11.5 4.71 11.56 4.3 C11.76 2.85 12.03 2.07 12.64 1.21 L12.79
						 1.01 L12.69 0.91 C12.29 0.5 11.88 0.27 11.22 0.07 C10.84 -0.04 10.93 -0.06 9.97 0.29 L9.11 0.6 L8.97 1.01
						 C8.35 2.81 7.95 4.87 7.79 7.12 C7.77 7.32 7.76 7.39 7.74 7.38 C7.73 7.37 7.71 7.37 7.69 7.39 C7.67 7.4 7.59
						 7.26 7.33 6.71 C6.86 5.72 6.55 5.15 6.09 4.45 C5.34 3.31 4.44 2.31 3.48 1.57 L3.29 1.43 L2.98 1.63 C2.02
						 2.25 1.61 2.66 1.2 3.42 C0.75 4.24 0.63 4.73 0.6 5.77 C0.59 6.33 0.63 7.22 0.71 7.97 C0.72 8.06 0.72 8.07
						 0.7 8.04 C0.67 8 0.66 8 0.54 8.08 C0.19 8.3 0 8.63 0 9.01 C0 9.73 0.63 10.19 1.35 10 C1.48 9.97 1.72 9.81
						 1.84 9.68 C1.99 9.52 2.09 9.31 2.13 9.08 C2.15 8.94 2.15 8.9 2.1 8.72 C2.04 8.49 1.93 8.3 1.77 8.16 C1.62
						 8.04 1.41 7.95 1.25 7.93 C1.17 7.92 1.12 7.91 1.12 7.89 C1.12 7.84 1.49 7.08 1.63 6.84 C2 6.2 2.43 5.74
						 2.9 5.48 C3 5.43 3.09 5.37 3.09 5.35 C3.1 5.3 3.99 6.27 4.22 6.58 C4.61 7.09 4.92 7.6 5.12 8.04 C5.2 8.21
						 5.21 8.26 5.19 8.28 C5.17 8.29 5.15 8.3 5.14 8.3 C5.13 8.3 5.16 8.35 5.21 8.4 C5.35 8.57 5.43 8.77 5.48
						 9.09 C5.5 9.25 5.5 9.27 5.47 9.3 C5.43 9.33 5.43 9.33 5.47 9.41 C5.53 9.51 5.61 9.76 5.61 9.84 C5.61 9.9
						 5.59 9.92 5.45 9.99 C5 10.22 4.53 10.65 4.29 11.04 C4.11 11.34 3.65 12.31 3.57 12.56 C3.47 12.89 3.37 13.48
						 3.41 13.57 C3.42 13.6 3.42 13.6 3.47 13.57 C3.55 13.52 3.55 13.52 3.55 13.6 C3.55 13.65 3.56 13.67 3.59
						 13.67 C3.66 13.67 3.95 13.35 4.21 12.98 C4.48 12.59 4.57 12.49 4.69 12.43 C4.8 12.37 5.08 12.33 5.27 12.35
						 L5.41 12.36 L5.41 13.03 L5.31 13.12 C5.25 13.18 5.07 13.32 4.91 13.45 C4.44 13.82 4.25 14.06 4.09 14.49
						 C4.05 14.57 3.99 14.7 3.95 14.77 C3.83 14.97 3.78 15.11 3.75 15.26 C3.7 15.49 3.74 15.53 3.87 15.39 C3.91
						 15.35 3.95 15.31 3.96 15.31 C3.99 15.31 3.99 15.33 4.03 15.57 C4.06 15.8 4.08 15.8 4.14 15.54 C4.26 15.05
						 4.39 14.97 5.22 14.92 C5.39 14.92 5.52 14.92 5.52 14.93 C5.52 14.94 5.46 15.07 5.38 15.22 C5.2 15.58 5.1
						 15.84 5.05 16.09 C4.99 16.4 4.98 16.43 4.85 16.74 C4.57 17.41 4.19 18.57 4.19 18.76 C4.19 18.82 4.23 18.77
						 4.32 18.64 C4.41 18.5 4.42 18.5 4.42 18.55 C4.43 18.59 4.41 18.68 4.4 18.76 C4.38 18.83 4.36 18.92 4.36
						 18.96 L4.36 19.03 L4.43 18.96 C4.46 18.92 4.64 18.66 4.82 18.39 C5.01 18.11 5.23 17.78 5.31 17.66 L5.46
						 17.44 L5.67 17.68 L5.57 17.9 C5.39 18.25 5.36 18.4 5.36 18.71 C5.36 18.97 5.36 18.99 5.45 19.24 C5.5 19.38
						 5.54 19.5 5.54 19.5 C5.53 19.5 5.35 19.54 5.13 19.59 C4.98 19.62 4.78 19.67 4.6 19.71 L4.7 19.84 A19.5362
						 20.9208 0 0 1 14.73 19.72 ZM12 18.74 C12.07 18.83 12.12 18.92 12.12 18.94 C12.12 18.96 12.14 18.98 12.16
						 18.98 C12.18 18.98 12.19 19 12.19 19.02 C12.19 19.04 12.2 19.07 12.21 19.08 C12.22 19.09 12.22 19.09 12.21
						 19.07 C12.19 19.03 12.2 19.03 12.23 19.07 C12.29 19.11 12.25 19.12 12.02 19.1 L11.82 19.08 L11.82 18.93
						 C11.83 18.71 11.85 18.66 11.89 18.68 C11.92 18.69 11.92 18.69 11.89 18.63 C11.82 18.53 11.86 18.57 12 18.74
						 ZM7.7 18.26 C7.67 18.3 7.67 18.32 7.69 18.36 C7.71 18.39 7.71 18.47 7.7 18.69 C7.68 18.84 7.68 18.99 7.68
						 19.03 C7.7 19.11 7.76 19.11 7.86 19.02 C7.91 18.98 7.97 18.94 8.01 18.93 C8.16 18.9 8.36 18.75 8.6 18.5
						 L8.83 18.25 L8.83 18.53 L8.82 18.81 L8.55 19.09 L8.17 19.12 C7.96 19.14 7.61 19.18 7.4 19.21 C6.95 19.26
						 6.94 19.26 6.96 19.23 C6.96 19.22 6.98 19.21 6.99 19.22 C7 19.22 7 19.21 7 19.19 C7 19.17 7.02 19.15 7.03
						 19.15 C7.05 19.15 7.07 19.13 7.07 19.1 C7.07 19.07 7.08 19.06 7.09 19.06 C7.11 19.06 7.12 19.06 7.11 19.05
						 C7.09 19.02 7.23 18.83 7.26 18.85 C7.27 18.85 7.27 18.85 7.27 18.84 C7.26 18.82 7.35 18.69 7.46 18.55 C7.57
						 18.41 7.68 18.27 7.69 18.24 C7.7 18.22 7.72 18.2 7.73 18.2 C7.73 18.2 7.72 18.22 7.7 18.26 ZM11.19 18.77
						 C11.27 18.83 11.4 18.9 11.47 18.92 C11.54 18.95 11.62 18.99 11.65 19.02 L11.71 19.07 L11.22 19.05 C10.94
						 19.04 10.72 19.03 10.71 19.02 C10.69 19 10.56 18.25 10.56 18.14 C10.56 18.12 10.67 18.23 10.8 18.39 C10.95
						 18.55 11.1 18.71 11.19 18.77 ZM13.56 18.09 C13.71 18.35 13.74 18.49 13.74 18.75 C13.74 18.91 13.73 19.01
						 13.71 19.07 L13.68 19.15 L13.64 18.99 C13.62 18.91 13.58 18.72 13.55 18.57 C13.52 18.42 13.47 18.24 13.45
						 18.16 C13.41 18.05 13.42 17.96 13.47 17.96 C13.48 17.96 13.52 18.02 13.56 18.09 ZM5.96 18.11 L6.03 18.22
						 L5.97 18.47 C5.92 18.71 5.86 19.15 5.85 19.35 C5.84 19.42 5.83 19.44 5.79 19.45 C5.76 19.46 5.73 19.46 5.73
						 19.46 C5.72 19.45 5.68 19.33 5.64 19.18 C5.57 18.94 5.56 18.89 5.57 18.69 C5.58 18.45 5.62 18.33 5.77 18.06
						 C5.85 17.92 5.85 17.93 5.96 18.11 ZM12.42 18.07 C12.54 18.24 12.65 18.46 12.72 18.67 L12.77 18.8 L12.62
						 18.62 C12.45 18.43 12.3 18.15 12.28 17.96 C12.26 17.84 12.26 17.84 12.42 18.07 ZM7.92 17.62 C7.92 17.65
						 7.92 17.62 7.92 17.56 C7.92 17.51 7.92 17.48 7.92 17.51 C7.93 17.54 7.93 17.59 7.92 17.62 ZM7.74 17.6 C7.68
						 17.83 7.55 18.04 7.24 18.39 C7.03 18.62 6.85 18.87 6.72 19.12 C6.66 19.23 6.62 19.3 6.63 19.28 C6.63 19.26
						 6.65 19.2 6.66 19.15 C6.68 19.1 6.76 18.96 6.84 18.85 C7.06 18.57 7.18 18.26 7.19 18.03 C7.19 17.94 7.3
						 17.78 7.43 17.67 C7.54 17.58 7.74 17.47 7.75 17.48 C7.76 17.49 7.75 17.54 7.74 17.6 ZM11.87 17.53 C11.94
						 17.57 12.02 17.63 12.06 17.67 C12.13 17.75 12.14 17.76 12.14 17.95 C12.14 18.35 12.22 18.54 12.64 19.07
						 L12.66 19.16 C12.62 19.16 12.59 19.14 12.57 19.08 C12.51 18.95 12.28 18.63 12.05 18.37 C11.72 18 11.57 17.72
						 11.57 17.51 C11.57 17.44 11.57 17.44 11.66 17.45 C11.7 17.46 11.8 17.5 11.87 17.53 ZM6.59 16.96 C6.54 17.04
						 6.43 17.25 6.34 17.44 C6.18 17.78 6.13 17.83 6.11 17.67 C6.1 17.59 6.1 17.57 6.26 17.37 C6.5 17.07 6.55
						 17 6.6 16.89 C6.63 16.84 6.65 16.8 6.66 16.8 C6.67 16.81 6.64 16.88 6.59 16.96 ZM6.39 16.78 C6.36 16.83
						 6.22 17 6.09 17.16 L5.84 17.44 L5.77 17.36 C5.72 17.29 5.7 17.26 5.71 17.2 C5.74 17.06 6.06 16.8 6.3 16.72
						 C6.37 16.7 6.43 16.68 6.44 16.68 C6.44 16.69 6.42 16.73 6.39 16.78 ZM13.33 16.78 C13.5 16.87 13.65 16.99
						 13.7 17.09 C13.73 17.16 13.73 17.16 13.6 17.3 L13.47 17.44 L13.31 17.26 C13.07 16.99 12.94 16.83 12.89 16.73
						 L12.84 16.63 L13.01 16.67 C13.1 16.68 13.25 16.73 13.33 16.78 ZM5.9 14.96 C5.92 15.03 5.9 15.05 5.67 15.31
						 C5.39 15.62 5.33 15.69 5.25 15.86 C5.16 16.04 5.18 15.92 5.28 15.7 C5.38 15.47 5.71 14.93 5.74 14.95 C5.75
						 14.96 5.78 14.95 5.81 14.93 C5.88 14.88 5.89 14.88 5.9 14.96 ZM5.66 12.54 C5.66 12.62 5.65 12.67 5.61 12.72
						 L5.57 12.79 L5.57 12.6 C5.57 12.42 5.57 12.41 5.62 12.41 C5.66 12.42 5.66 12.43 5.66 12.54 ZM11 6.74 L11.1
						 6.78 L10.96 7.06 C10.81 7.34 10.81 7.35 10.73 7.35 C10.66 7.35 10.65 7.35 10.64 7.27 C10.63 7.22 10.62 7.03
						 10.62 6.83 L10.62 6.47 L10.76 6.59 C10.84 6.65 10.95 6.72 11 6.74 ZM10.97 4.72 L11.04 4.8 L10.93 4.87 C10.84
						 4.93 10.82 4.94 10.83 4.91 C10.84 4.88 10.85 4.82 10.86 4.77 C10.87 4.68 10.88 4.64 10.9 4.64 C10.9 4.64
						 10.93 4.68 10.97 4.72 Z" class="st1"/>
		</g>
	</g>
</svg>
