<svg xmlns="http://www.w3.org/2000/svg" viewBox="0 0 830.6 415.3"><defs><style>.cls-1{fill:none;}.cls-2,.cls-5,.cls-6{fill:#fff;}.cls-3,.cls-7{fill:none;}.cls-3,.cls-6,.cls-7{stroke:#00b2a9;}.cls-3{stroke-miterlimit:7.4;stroke-width:0.4px;}.cls-4{fill:#00b2a9;}.cls-5{fill-rule:evenodd;}.cls-6,.cls-7{stroke-miterlimit:3;stroke-width:1.5px;}</style></defs><g id="Слой_2" data-name="Слой 2"><g id="Layer_1" data-name="Layer 1"><rect class="cls-1" width="830.6" height="415.3"/><g id="Layer_1-211" data-name="Layer 1-211"><g id="_2К" data-name="2К"><rect class="cls-2" x="435.2" y="107.2" width="151" height="187.3"/><rect class="cls-2" x="245.1" y="107.2" width="238.1" height="208.7"/><line class="cls-3" x1="287.2" y1="299.1" x2="287.2" y2="246.2"/><line class="cls-3" x1="278.3" y1="299.1" x2="278.3" y2="246.2"/><line class="cls-3" x1="269.6" y1="299.1" x2="269.6" y2="246.2"/><line class="cls-3" x1="295.9" y1="299.1" x2="295.9" y2="246.2"/><line class="cls-3" x1="304.9" y1="299.1" x2="304.9" y2="246.2"/><line class="cls-3" x1="313.6" y1="299.1" x2="313.6" y2="246.2"/><line class="cls-3" x1="322.5" y1="299.1" x2="322.5" y2="246.2"/><line class="cls-3" x1="334.1" y1="281.5" x2="264.4" y2="281.5"/><line class="cls-3" x1="334.1" y1="290.3" x2="264.4" y2="290.3"/><line class="cls-3" x1="334.1" y1="299.1" x2="264.4" y2="299.1"/><line class="cls-3" x1="334.1" y1="272.5" x2="264.4" y2="272.5"/><line class="cls-3" x1="334.1" y1="263.8" x2="264.4" y2="263.8"/><line class="cls-3" x1="334.1" y1="254.9" x2="264.4" y2="254.9"/><line class="cls-3" x1="334.1" y1="246.2" x2="264.4" y2="246.2"/><line class="cls-3" x1="331.2" y1="299.1" x2="331.2" y2="246.2"/><line class="cls-3" x1="334.1" y1="299.1" x2="334.1" y2="246.2"/><line class="cls-3" x1="462.9" y1="313.1" x2="409.9" y2="313.1"/><line class="cls-3" x1="462.9" y1="304.3" x2="409.9" y2="304.3"/><line class="cls-3" x1="462.9" y1="295.4" x2="409.9" y2="295.4"/><line class="cls-3" x1="462.9" y1="286.6" x2="409.9" y2="286.6"/><line class="cls-3" x1="445.2" y1="274.8" x2="445.2" y2="313.1"/><line class="cls-3" x1="454.1" y1="274.8" x2="454.1" y2="313.1"/><line class="cls-3" x1="462.9" y1="274.8" x2="462.9" y2="313.1"/><line class="cls-3" x1="436.5" y1="274.8" x2="436.5" y2="313.1"/><line class="cls-3" x1="427.6" y1="274.8" x2="427.6" y2="313.1"/><line class="cls-3" x1="418.8" y1="274.8" x2="418.8" y2="313.1"/><line class="cls-3" x1="409.9" y1="274.8" x2="409.9" y2="313.1"/><line class="cls-3" x1="462.9" y1="277.8" x2="409.9" y2="277.8"/><line class="cls-3" x1="462.9" y1="274.8" x2="409.9" y2="274.8"/><rect class="cls-4" x="241.7" y="307.4" width="98.9" height="8.5"/><rect class="cls-4" x="478.2" y="285.8" width="110.7" height="8.5"/><rect class="cls-4" x="479" y="290.3" width="8.5" height="25.7"/><rect class="cls-4" x="334.4" y="306.5" width="6.1" height="9.4"/><rect class="cls-4" x="369.2" y="306.5" width="118.4" height="9.4"/><rect class="cls-4" x="241.7" y="103.9" width="7" height="212"/><rect class="cls-4" x="581.9" y="103.9" width="7" height="190.5"/><rect class="cls-4" x="241.7" y="138.6" width="50.1" height="10.6"/><rect class="cls-4" x="341.2" y="138.6" width="23.6" height="10.6"/><rect class="cls-4" x="241.7" y="103.9" width="12.3" height="45.3"/><rect class="cls-4" x="352.5" y="103.9" width="12.3" height="45.3"/><rect class="cls-4" x="360.4" y="103.9" width="228.3" height="10.6"/><rect class="cls-4" x="330.8" y="239.6" width="3.8" height="28"/><rect class="cls-4" x="477.9" y="270" width="3.8" height="45.9"/><rect class="cls-4" x="462.2" y="274.7" width="3.8" height="41.2"/><rect class="cls-4" x="408.4" y="274.7" width="3.8" height="41.2"/><rect class="cls-4" x="359.3" y="239.6" width="16.5" height="3.8"/><rect class="cls-4" x="397.7" y="239.6" width="83.9" height="3.8"/><rect class="cls-4" x="361" y="109.5" width="3.8" height="133.9"/><rect class="cls-4" x="477.9" y="103.9" width="3.8" height="141"/><rect class="cls-4" x="330.8" y="290" width="3.8" height="25.9"/><rect class="cls-4" x="241.7" y="239.6" width="95.4" height="3.8"/><rect class="cls-4" x="262.7" y="298.9" width="71.8" height="3.1"/><rect class="cls-4" x="261.3" y="239.6" width="3.1" height="62.5"/><rect class="cls-4" x="261.5" y="243.4" width="73" height="3.8"/><path class="cls-5" d="M369.2,315.9a28.42,28.42,0,0,1-28.5,28.5V315.9Z"/><rect class="cls-4" x="340.5" y="315.9" width="1.5" height="28.5"/><path class="cls-4" d="M340.7,345.1A29.13,29.13,0,0,0,369.8,316h-.6a28.42,28.42,0,0,1-28.5,28.5v.6Z"/><path class="cls-5" d="M334.4,267.6v22.2a22.11,22.11,0,0,0,22.1-22.1"/><rect class="cls-4" x="334.4" y="267.6" width="22.3" height="1.5"/><path class="cls-4" d="M356.3,267.7a21.57,21.57,0,0,1-21.6,21.6v.6A22.26,22.26,0,0,0,357,267.6h-.7v.2h-.1Z"/><path class="cls-5" d="M359.3,239.6H337.2a21.94,21.94,0,0,1,22-22"/><rect class="cls-4" x="357.7" y="217.5" width="1.5" height="22.1"/><path class="cls-4" d="M359.3,217a22.85,22.85,0,0,0-22.8,22.8h.6a22.11,22.11,0,0,1,22.1-22.1v-.6h.1Z"/><path class="cls-5" d="M375.7,239.6h22.1a21.94,21.94,0,0,0-22-22"/><rect class="cls-4" x="375.7" y="217.5" width="1.5" height="22.1"/><path class="cls-4" d="M375.7,218.1a21.53,21.53,0,0,1,21.5,21.5h.6a22.11,22.11,0,0,0-22.1-22.1v.6h0Z"/><rect class="cls-4" x="410.1" y="274.7" width="7.4" height="3.8"/><rect class="cls-4" x="439.6" y="274.7" width="42.1" height="3.8"/><path class="cls-5" d="M417.5,274.7h22.1a21.94,21.94,0,0,0-22-22"/><rect class="cls-4" x="417.5" y="252.5" width="1.5" height="22.1"/><path class="cls-4" d="M417.5,253.1A21.53,21.53,0,0,1,439,274.6h.6a22.11,22.11,0,0,0-22.1-22.1v.6h0Z"/><path class="cls-5" d="M481.6,270V245a25.07,25.07,0,0,1,25,25"/><rect class="cls-4" x="481.6" y="268.2" width="25" height="1.7"/><path class="cls-4" d="M507.2,269.9a25.54,25.54,0,0,0-25.5-25.5v.6a25.07,25.07,0,0,1,25,25h.5Z"/><rect class="cls-2" x="254.5" y="104.2" width="97.8" height="5.9"/><path class="cls-4" d="M351.8,104.5v5.4H254.7v-5.4h97.1m.7-.6H254.3v6.6h98.2v-6.6Z"/><path class="cls-4" d="M302.7,106.3V108h-48v-1.7h48m.6-.7H254.1v2.9h49.2v-2.9Z"/><path class="cls-4" d="M351.8,106.3V108h-48v-1.7h48m.7-.7H303.3v2.9h49.2v-2.9Z"/><rect class="cls-2" x="394.3" y="104.2" width="54.2" height="9.9"/><path class="cls-4" d="M448.1,104.5v9.4H394.6v-9.4h53.5m.6-.6H394.1v10.6h54.6V103.9Z"/><path class="cls-4" d="M420.7,106.3V108H394.6v-1.7h26.1m.6-.7H393.9v2.9h27.4v-2.9Z"/><path class="cls-4" d="M448.1,106.3V108H422v-1.7h26.1m.6-.7H421.3v2.9h27.4v-2.9Z"/><rect class="cls-2" x="504.7" y="104.2" width="54.2" height="9.9"/><path class="cls-4" d="M558.5,104.5v9.4H505v-9.4h53.5m.6-.6H504.5v10.6h54.6V103.9Z"/><path class="cls-4" d="M531.2,106.3V108H505.1v-1.7h26.1m.5-.7H504.3v2.9h27.4v-2.9Z"/><path class="cls-4" d="M558.5,106.3V108H532.4v-1.7h26.1m.6-.7H531.7v2.9h27.4v-2.9Z"/><path class="cls-5" d="M292.4,147.1h24.2a23.94,23.94,0,0,1-24,24"/><rect class="cls-4" x="292.4" y="147.1" width="1.7" height="24.2"/><path class="cls-4" d="M292.4,172a24.75,24.75,0,0,0,24.7-24.7h-.6a24.16,24.16,0,0,1-24.2,24.2v.6h.1Z"/><rect class="cls-2" x="249.1" y="225.3" width="17.1" height="14.1"/><path class="cls-4" d="M265.9,225.5v13.6H249.4V225.5h16.5m.6-.7H248.8v14.7h17.7V224.8Z"/><rect class="cls-2" x="253.6" y="227.3" width="10.6" height="9.9"/><path class="cls-4" d="M263.9,227.6v9.3H254v-9.3h9.9m.5-.5H253.2v10.5h11.2V227.1Z"/><rect class="cls-2" x="249.1" y="231.4" width="6.8" height="1.7"/><path class="cls-4" d="M255.6,231.6v1.2h-6.1v-1.2h6.1m.6-.5h-7.4v2.3h7.4v-2.3Z"/><rect class="cls-2" x="249.1" y="195.6" width="17.1" height="14.1"/><path class="cls-4" d="M265.9,195.8v13.6H249.4V195.8h16.5m.6-.6H248.8v14.7h17.7V195.2Z"/><path class="cls-2" d="M262.1,202.4a2.58,2.58,0,0,1-2.6-2.6,2.6,2.6,0,1,1,2.6,2.6Z"/><path class="cls-4" d="M262.1,197.2a2.3,2.3,0,1,1-2.3,2.3,2.26,2.26,0,0,1,2.3-2.3m0-.5a2.84,2.84,0,0,0-2.9,2.9,2.9,2.9,0,1,0,2.9-2.9Z"/><circle class="cls-2" cx="262.1" cy="206.2" r="2.1"/><path class="cls-4" d="M262.1,204.3a1.86,1.86,0,0,1,1.8,1.8,1.8,1.8,0,1,1-1.8-1.8m0-.7a2.47,2.47,0,0,0-2.5,2.5,2.5,2.5,0,1,0,2.5-2.5Z"/><path class="cls-2" d="M255.6,208.2a2.58,2.58,0,0,1-2.6-2.6,2.6,2.6,0,1,1,2.6,2.6Z"/><path class="cls-4" d="M255.6,203.2a2.3,2.3,0,1,1-2.3,2.3,2.26,2.26,0,0,1,2.3-2.3m0-.6a2.84,2.84,0,0,0-2.9,2.9,2.9,2.9,0,1,0,2.9-2.9Z"/><path class="cls-2" d="M255.6,201.3a2.1,2.1,0,1,1,2.1-2.1A2.05,2.05,0,0,1,255.6,201.3Z"/><path class="cls-4" d="M255.6,197.2a1.86,1.86,0,0,1,1.8,1.8,1.8,1.8,0,1,1-1.8-1.8m0-.5a2.47,2.47,0,0,0-2.5,2.5,2.5,2.5,0,1,0,2.5-2.5Z"/><rect class="cls-2" x="264.6" y="247.6" width="20" height="49.5"/><path class="cls-4" d="M284.5,247.9v48.9H265.2V247.9h19.3m.6-.6H264.5v50.1h20.6V247.3Z"/><path class="cls-6" d="M268.8,295H281a1.91,1.91,0,0,0,1.8-2V251.5a2.05,2.05,0,0,0-1.8-2H268.8a1.91,1.91,0,0,0-1.8,2V293A2.05,2.05,0,0,0,268.8,295Z"/><circle class="cls-7" cx="274.7" cy="258.2" r="0.9"/><rect class="cls-2" x="273.8" y="247.6" width="1.7" height="6.8"/><path class="cls-4" d="M275.3,247.9V254h-1.2v-6.1h1.2m.6-.6h-2.3v7.4h2.3v-7.4Z"/><path class="cls-6" d="M300,286.1a4.89,4.89,0,0,0-5.1-4.9,5,5,0,0,0-5.1,4.9v12.5c0,.1,0,.2.2.2h9.4c.1,0,.2,0,.2-.2V286.1Z"/><path class="cls-7" d="M300,292.9h-9.9v1H300Z"/><path class="cls-6" d="M449.1,285.1a4.89,4.89,0,0,0-4.9,5.1,5,5,0,0,0,4.9,5.1h12.5c.1,0,.2,0,.2-.2v-9.4c0-.1,0-.2-.2-.2H449.1v-.4Z"/><path class="cls-7" d="M456,285.1V295h1v-9.9Z"/><path class="cls-2" d="M309.1,298.5v-8.6a3.05,3.05,0,0,1,3.1-3.1h8.5a3.05,3.05,0,0,1,3.1,3.1v8.6Z"/><path class="cls-4" d="M320.8,287a2.9,2.9,0,0,1,2.9,2.9v8.4H309.6v-8.4a2.9,2.9,0,0,1,2.9-2.9H321m-.2-.5h-8.5a3.5,3.5,0,0,0-3.4,3.4v8.9h15.3v-8.9a3.5,3.5,0,0,0-3.4-3.4h0Z"/><path class="cls-2" d="M311.2,296.9v-6.3a2.07,2.07,0,0,1,2-2H320a2.07,2.07,0,0,1,2,2v6.3Z"/><path class="cls-4" d="M319.8,289.1a1.69,1.69,0,0,1,1.7,1.7v6h-9.9v-6a1.69,1.69,0,0,1,1.7-1.7h6.8m-.3-.7H313a2.16,2.16,0,0,0-2.2,2.2v6.6H322v-6.6a2.16,2.16,0,0,0-2.2-2.2h0Z"/><rect class="cls-2" x="315.7" y="293.6" width="1.7" height="5.1"/><path class="cls-4" d="M317.2,293.8v4.5H316v-4.5h1.2m.4-.6h-2.3v5.6h2.3v-5.6Z"/><path class="cls-2" d="M420.1,306.1v-8.6a3.05,3.05,0,0,1,3.1-3.1h8.5a3.05,3.05,0,0,1,3.1,3.1v8.6Z"/><path class="cls-4" d="M431.8,294.7a2.9,2.9,0,0,1,2.9,2.9V306H420.6v-8.4a2.9,2.9,0,0,1,2.9-2.9H432m-.2-.6h-8.5a3.5,3.5,0,0,0-3.4,3.4v8.9h15.3v-8.9a3.5,3.5,0,0,0-3.4-3.4h0Z"/><path class="cls-2" d="M422.2,304.6v-6.3a2.07,2.07,0,0,1,2-2H431a2.07,2.07,0,0,1,2,2v6.3Z"/><path class="cls-4" d="M431,296.7a1.69,1.69,0,0,1,1.7,1.7v6h-9.9v-6a1.69,1.69,0,0,1,1.7-1.7h6.8m-.3-.6h-6.8a2.16,2.16,0,0,0-2.2,2.2v6.6h11.2v-6.6a2.16,2.16,0,0,0-2.2-2.2h0Z"/><rect class="cls-2" x="426.7" y="301.1" width="1.7" height="5.1"/><path class="cls-4" d="M428.1,301.5V306h-1.2v-4.5h1.2m.7-.7h-2.3v5.6h2.3v-5.6Z"/><path class="cls-4" d="M259.4,277.8v23.6h-8.7V277.8h8.7m.7-.5h-9.9V302h9.9V277.3Z"/><path class="cls-4" d="M259.4,248.5v23.6h-8.7V248.5h8.7m.7-.6h-9.9v24.7h9.9V247.9Z"/><path class="cls-4" d="M476.4,280.6v23.6h-8.7V280.6h8.7m.7-.7h-9.9v24.7h9.9V279.9Z"/><rect class="cls-2" x="292" y="138.9" width="48.9" height="9.9"/><path class="cls-4" d="M340.7,139.2v9.4H292.4v-9.4h48.3m.5-.6H291.7v10.6h49.5V138.6Z"/><path class="cls-4" d="M315.9,144.9v1.7H292.3v-1.7h23.6m.6-.6H291.8v2.9h24.7v-2.9Z"/><path class="cls-4" d="M340.7,144.9v1.7H317.1v-1.7h23.6m.5-.6H316.5v2.9h24.7v-2.9Z"/><rect class="cls-2" x="411.6" y="90.1" width="36.8" height="13.6"/><path class="cls-4" d="M448.1,90.4v13H411.9v-13h36.2m.6-.5H411.3V104h37.4V89.9Z"/><rect class="cls-2" x="522.1" y="90.1" width="36.8" height="13.6"/><path class="cls-4" d="M558.5,90.4v13H522.3v-13h36.2m.6-.5H521.7V104h37.4V89.9Z"/></g></g></g></g></svg>